<svg width="41" height="39" viewBox="0 0 41 39" fill="none" xmlns="http://www.w3.org/2000/svg">
<mask id="mask0_20_477" style="mask-type:luminance" maskUnits="userSpaceOnUse" x="28" y="20" width="13" height="7">
<path d="M28.6019 20.8499C32.1692 20.8499 36.1751 22.3941 40.186 25.3156C40.3634 25.4444 40.3977 25.6868 40.2638 25.857C40.1851 25.9574 40.0646 26.0102 39.9433 26.0102C39.8588 26.0102 39.7743 25.9847 39.7014 25.9319C35.8312 23.1129 31.9935 21.6228 28.6019 21.6228C28.3801 21.6228 28.2002 21.4498 28.2002 21.2363C28.2002 21.0229 28.3801 20.8499 28.6019 20.8499Z" fill="white"/>
</mask>
<g mask="url(#mask0_20_477)">
<path d="M28.2002 20.8499H40.3454V26.0102H28.2002V20.8499Z" fill="white"/>
</g>
<mask id="mask1_20_477" style="mask-type:luminance" maskUnits="userSpaceOnUse" x="20" y="20" width="21" height="14">
<path d="M20.5994 20.8499C24.0028 20.8499 27.6672 22.187 31.4906 24.8244C34.5685 26.9471 37.684 29.9125 40.2639 33.1741C40.3978 33.3439 40.3635 33.5864 40.1869 33.7157C40.1149 33.7689 40.0287 33.7946 39.9442 33.7946C39.8229 33.7946 39.7032 33.7421 39.6245 33.6421C35.0287 27.8317 27.6178 21.6228 20.5994 21.6228C20.3777 21.6228 20.1978 21.4498 20.1978 21.2363C20.1978 21.0229 20.3777 20.8499 20.5994 20.8499Z" fill="white"/>
</mask>
<g mask="url(#mask1_20_477)">
<path d="M20.1978 20.8499H40.3455V33.7946H20.1978V20.8499Z" fill="white"/>
</g>
<mask id="mask2_20_477" style="mask-type:luminance" maskUnits="userSpaceOnUse" x="0" y="20" width="36" height="19">
<path d="M12.7456 20.8499C22.6393 20.8499 32.6352 32.1947 35.7883 38.2687C35.887 38.4596 35.8067 38.6917 35.6084 38.7871C35.5506 38.8148 35.4896 38.828 35.4293 38.828C35.282 38.828 35.1398 38.7496 35.0695 38.6141C33.6301 35.8407 30.5264 31.5302 26.1331 27.7492C22.8862 24.9544 17.9272 21.6228 12.7456 21.6228H0.471986C0.250229 21.6228 0.0703125 21.4498 0.0703125 21.2363C0.0703125 21.0229 0.250229 20.8499 0.471986 20.8499H12.7456Z" fill="white"/>
</mask>
<g mask="url(#mask2_20_477)">
<path d="M0.0703125 20.8499H35.8305V38.828H0.0703125V20.8499Z" fill="white"/>
</g>
<mask id="mask3_20_477" style="mask-type:luminance" maskUnits="userSpaceOnUse" x="4" y="20" width="25" height="19">
<path d="M4.93892 20.8499C14.8326 20.8499 24.8285 32.1947 27.9816 38.2686C28.0812 38.4596 28.0008 38.6917 27.8025 38.787C27.7448 38.8148 27.6828 38.8279 27.6226 38.8279C27.4753 38.8279 27.3339 38.7496 27.2636 38.6141C25.8234 35.8407 22.7197 31.5302 18.3272 27.7492C15.0795 24.9544 10.1213 21.6228 4.93892 21.6228C4.71717 21.6228 4.53809 21.4498 4.53809 21.2363C4.53809 21.0229 4.71717 20.8499 4.93892 20.8499Z" fill="white"/>
</mask>
<g mask="url(#mask3_20_477)">
<path d="M4.53809 20.8499H28.0244V38.8279H4.53809V20.8499Z" fill="white"/>
</g>
<mask id="mask4_20_477" style="mask-type:luminance" maskUnits="userSpaceOnUse" x="4" y="20" width="25" height="19">
<path d="M4.93892 20.8499C14.8326 20.8499 24.8285 32.1947 27.9816 38.2686C28.0812 38.4596 28.0008 38.6917 27.8025 38.787C27.7448 38.8148 27.6828 38.8279 27.6226 38.8279C27.4753 38.8279 27.3339 38.7496 27.2636 38.6141C25.8234 35.8407 22.7197 31.5302 18.3272 27.7492C15.0795 24.9544 10.1213 21.6228 4.93892 21.6228C4.71717 21.6228 4.53809 21.4498 4.53809 21.2363C4.53809 21.0229 4.71717 20.8499 4.93892 20.8499Z" fill="white"/>
</mask>
<g mask="url(#mask4_20_477)">
<path d="M4.53809 20.8499H28.0244V38.8279H4.53809V20.8499Z" fill="white"/>
</g>
<mask id="mask5_20_477" style="mask-type:luminance" maskUnits="userSpaceOnUse" x="0" y="21" width="21" height="18">
<path d="M0.573471 21.2979C5.39188 22.5027 9.68894 25.8623 12.4446 28.4686C15.6387 31.49 18.5115 35.1535 20.1283 38.2685C20.2278 38.4595 20.1475 38.6916 19.9492 38.7869C19.8914 38.8147 19.8304 38.8278 19.7693 38.8278C19.622 38.8278 19.4806 38.7495 19.4103 38.614C16.5693 33.1417 8.55338 24.0916 0.37096 22.046C0.156735 21.9924 0.0278643 21.7814 0.0830944 21.5748C0.139161 21.3682 0.358408 21.2442 0.573471 21.2979Z" fill="white"/>
</mask>
<g mask="url(#mask5_20_477)">
<path d="M0.0703125 21.2854H20.171V38.8278H0.0703125V21.2854Z" fill="white"/>
</g>
<mask id="mask6_20_477" style="mask-type:luminance" maskUnits="userSpaceOnUse" x="0" y="25" width="13" height="14">
<path d="M0.712625 25.206C6.03898 29.0404 10.3812 34.5294 12.3227 38.2685C12.4214 38.4594 12.3411 38.6915 12.1428 38.7869C12.085 38.8146 12.0239 38.8278 11.9637 38.8278C11.8164 38.8278 11.6741 38.7494 11.6038 38.6139C9.70509 34.9564 5.45237 29.5836 0.231454 25.8248C0.0540481 25.697 0.0180648 25.4548 0.151119 25.2839C0.283337 25.113 0.53522 25.0781 0.712625 25.206Z" fill="white"/>
</mask>
<g mask="url(#mask6_20_477)">
<path d="M0.0708008 25.1289H12.3649V38.8278H0.0708008V25.1289Z" fill="white"/>
</g>
<mask id="mask7_20_477" style="mask-type:luminance" maskUnits="userSpaceOnUse" x="1" y="8" width="10" height="11">
<path d="M2.97622 10.8993C3.12936 9.46897 4.45823 8.42865 5.94442 8.5756C7.43145 8.72263 8.51262 10.0013 8.35948 11.4316C8.33521 11.6627 8.27914 11.8834 8.19714 12.0907C9.69755 12.5462 10.7101 13.9654 10.5427 15.5299C10.3519 17.3196 8.68919 18.6213 6.82894 18.4374C6.07747 18.3631 5.40885 18.0574 4.89086 17.6015C4.644 17.6381 4.38793 17.6454 4.12685 17.6198C2.4825 17.4571 1.28584 16.0422 1.45488 14.4595C1.56618 13.4168 2.24233 12.5617 3.16116 12.1458C2.99965 11.7635 2.92936 11.3386 2.97622 10.8993ZM8.46827 15.0128C8.25404 14.9584 8.03396 15.0817 7.97789 15.2881C7.87747 15.6551 7.53103 15.9115 7.13605 15.9115C6.99546 15.9115 6.86074 15.8803 6.73689 15.8188C6.54023 15.7208 6.29756 15.7952 6.1963 15.9849C6.09421 16.1746 6.1712 16.4077 6.36869 16.5056C6.60383 16.6226 6.8691 16.6844 7.13605 16.6844C7.89504 16.6844 8.56115 16.1913 8.75446 15.4851C8.81136 15.2787 8.68333 15.0673 8.46827 15.0128Z" fill="white"/>
</mask>
<g mask="url(#mask7_20_477)">
<path d="M1.43896 8.56177H10.5608V18.4547H1.43896V8.56177Z" fill="white"/>
</g>
<mask id="mask8_20_477" style="mask-type:luminance" maskUnits="userSpaceOnUse" x="6" y="18" width="2" height="4">
<path d="M6.78595 18.0654C7.00855 18.0654 7.18762 18.2385 7.18762 18.4519V21.2363C7.18762 21.4498 7.00855 21.6228 6.78595 21.6228C6.56419 21.6228 6.38428 21.4498 6.38428 21.2363V18.4519C6.38428 18.2385 6.56419 18.0654 6.78595 18.0654Z" fill="white"/>
</mask>
<g mask="url(#mask8_20_477)">
<path d="M6.38428 18.0654H7.18762V21.6228H6.38428V18.0654Z" fill="white"/>
</g>
<mask id="mask9_20_477" style="mask-type:luminance" maskUnits="userSpaceOnUse" x="4" y="17" width="1" height="5">
<path d="M4.59015 17.248C4.81191 17.248 4.99182 17.4211 4.99182 17.6345V21.2363C4.99182 21.4497 4.81191 21.6228 4.59015 21.6228C4.36839 21.6228 4.18848 21.4497 4.18848 21.2363V17.6345C4.18848 17.4211 4.36839 17.248 4.59015 17.248Z" fill="white"/>
</mask>
<g mask="url(#mask9_20_477)">
<path d="M4.18848 17.248H4.99182V21.6228H4.18848V17.248Z" fill="white"/>
</g>
<mask id="mask10_20_477" style="mask-type:luminance" maskUnits="userSpaceOnUse" x="5" y="20" width="34" height="2">
<path d="M38.0959 20.8499V21.3314C38.0959 21.5195 37.9377 21.672 37.7419 21.672H5.2373V20.8499H38.0959Z" fill="white"/>
</mask>
<g mask="url(#mask10_20_477)">
<path d="M5.2373 20.8499H38.0959V21.672H5.2373V20.8499Z" fill="white"/>
</g>
<mask id="mask11_20_477" style="mask-type:luminance" maskUnits="userSpaceOnUse" x="17" y="13" width="7" height="8">
<path d="M23.2379 13.9783V20.8497H17.9609V13.9783H23.2379Z" fill="white"/>
</mask>
<g mask="url(#mask11_20_477)">
<path d="M17.9609 13.9783H23.2379V20.8497H17.9609V13.9783Z" fill="white"/>
</g>
<mask id="mask12_20_477" style="mask-type:luminance" maskUnits="userSpaceOnUse" x="21" y="0" width="19" height="22">
<path d="M30.367 0.460938C30.5168 0.460938 30.6616 0.513356 30.7745 0.60845L39.2825 7.79897C39.5126 7.99334 39.3695 8.35834 39.0632 8.35834H38.0892V21.2362H28.8356V8.74483H29.9444C30.1109 8.74483 30.2607 8.64515 30.3201 8.49458C30.3787 8.34409 30.3352 8.17419 30.2088 8.06798L21.208 0.460938H30.367Z" fill="white"/>
</mask>
<g mask="url(#mask12_20_477)">
<path d="M21.208 0.460938H39.396V21.2362H21.208V0.460938Z" fill="white"/>
</g>
<mask id="mask13_20_477" style="mask-type:luminance" maskUnits="userSpaceOnUse" x="12" y="0" width="17" height="22">
<path d="M20.3033 0.71875C20.3134 0.729701 20.3226 0.741296 20.3343 0.751361L28.8782 7.97191H27.2104C26.9887 7.97191 26.8087 8.14495 26.8087 8.3584C26.8087 8.57186 26.9887 8.7449 27.2104 8.7449H28.0246V21.2363H24.0414V13.5919C24.0414 13.3784 23.8615 13.2054 23.6397 13.2054H17.5594C17.3376 13.2054 17.1577 13.3784 17.1577 13.5919V21.2363H13.11V8.3584H12.3836C12.0765 8.3584 11.9318 7.99494 12.1585 7.79726L20.3033 0.71875ZM25.5577 10.2567C25.3359 10.2567 25.156 10.4297 25.156 10.6432V11.6295C25.156 11.843 25.3359 12.016 25.5577 12.016C25.7795 12.016 25.9594 11.843 25.9594 11.6295V10.6432C25.9594 10.4297 25.7795 10.2567 25.5577 10.2567ZM20.5995 10.2567C20.3778 10.2567 20.1979 10.4297 20.1979 10.6432V11.6295C20.1979 11.843 20.3778 12.016 20.5995 12.016C20.8213 12.016 21.0012 11.843 21.0012 11.6295V10.6432C21.0012 10.4297 20.8213 10.2567 20.5995 10.2567ZM15.6414 10.2567C15.4196 10.2567 15.2397 10.4297 15.2397 10.6432V11.6295C15.2397 11.843 15.4196 12.016 15.6414 12.016C15.8631 12.016 16.0431 11.843 16.0431 11.6295V10.6432C16.0431 10.4297 15.8631 10.2567 15.6414 10.2567ZM24.2606 7.97191H16.9385C16.7167 7.97191 16.5368 8.14495 16.5368 8.3584C16.5368 8.57186 16.7167 8.7449 16.9385 8.7449H24.2606C24.4824 8.7449 24.6623 8.57186 24.6623 8.3584C24.6623 8.14495 24.4824 7.97191 24.2606 7.97191ZM20.5995 4.03319C20.3778 4.03319 20.1979 4.20623 20.1979 4.41969V6.06359C20.1979 6.27704 20.3778 6.45008 20.5995 6.45008C20.8213 6.45008 21.0012 6.27704 21.0012 6.06359V4.41969C21.0012 4.20623 20.8213 4.03319 20.5995 4.03319Z" fill="white"/>
</mask>
<g mask="url(#mask13_20_477)">
<path d="M12.0479 0.71875H28.8782V21.2363H12.0479V0.71875Z" fill="white"/>
</g>
</svg>
