<svg width="10" height="5" viewBox="0 0 10 5" fill="none" xmlns="http://www.w3.org/2000/svg">
<path fill-rule="evenodd" clip-rule="evenodd" d="M0.679575 0.179147C0.902731 -0.0440094 1.26454 -0.0440094 1.4877 0.179147L5.00021 3.69166L8.51272 0.179147C8.73587 -0.0440094 9.09768 -0.0440094 9.32084 0.179147C9.544 0.402304 9.544 0.764113 9.32084 0.987269L5.80935 4.49876C5.80925 4.49886 5.80945 4.49866 5.80935 4.49876C5.70325 4.60505 5.57694 4.68968 5.43823 4.74724C5.29938 4.80486 5.15053 4.83451 5.00021 4.83451C4.84988 4.83451 4.70103 4.80486 4.56219 4.74724C4.42347 4.68968 4.29746 4.60535 4.19136 4.49905C4.19126 4.49895 4.19145 4.49915 4.19136 4.49905L0.679575 0.987269C0.456418 0.764113 0.456418 0.402304 0.679575 0.179147Z" fill="#405672" fill-opacity="0.7"/>
</svg>
