<svg width="38" height="49" viewBox="0 0 38 49" fill="none" xmlns="http://www.w3.org/2000/svg">
<g clip-path="url(#clip0_107_977)">
<path d="M13.9521 4.47748C13.9521 5.09251 14.4443 5.59265 15.0495 5.59265C15.6546 5.59265 16.1468 5.09251 16.1468 4.47748C16.1468 3.86244 15.6546 3.3623 15.0495 3.3623C14.4443 3.3623 13.9521 3.86244 13.9521 4.47748Z" fill="#2F2F2F"/>
<path d="M15.0497 5.76164C14.3514 5.76164 13.7861 5.18377 13.7861 4.4775C13.7861 3.77122 14.3547 3.19336 15.0497 3.19336C15.7447 3.19336 16.3133 3.77122 16.3133 4.4775C16.3133 5.18377 15.7447 5.76164 15.0497 5.76164ZM15.0497 3.53129C14.5376 3.53129 14.1186 3.95708 14.1186 4.4775C14.1186 4.99791 14.5376 5.4237 15.0497 5.4237C15.5618 5.4237 15.9807 4.99791 15.9807 4.4775C15.9807 3.95708 15.5618 3.53129 15.0497 3.53129Z" fill="#2F2F2F"/>
<path d="M24.9952 7.40417H28.6263V28.8493C28.6263 29.1838 28.8923 29.4542 29.2215 29.4542C29.5507 29.4542 29.8167 29.1838 29.8167 28.8493V6.94796C29.8167 6.53231 29.4842 6.19775 29.0785 6.19775H24.9985C24.6693 6.19775 24.4033 6.4681 24.4033 6.80265C24.4033 7.1372 24.6693 7.40755 24.9985 7.40755L24.9952 7.40417Z" fill="#2F2F2F"/>
<path d="M29.2211 29.6231C28.8022 29.6231 28.4597 29.275 28.4597 28.8493V7.57311H24.9949C24.5759 7.57311 24.2334 7.22505 24.2334 6.79925C24.2334 6.37346 24.5759 6.02539 24.9949 6.02539H29.0748C29.5736 6.02539 29.9793 6.43767 29.9793 6.94456V28.8459C29.9793 29.2717 29.6368 29.6197 29.2178 29.6197L29.2211 29.6231ZM24.9949 6.3667C24.7588 6.3667 24.5659 6.5627 24.5659 6.80263C24.5659 7.04256 24.7588 7.23856 24.9949 7.23856H28.7922V28.8526C28.7922 29.0926 28.9851 29.2886 29.2211 29.2886C29.4572 29.2886 29.6501 29.0926 29.6501 28.8526V6.94794C29.6501 6.62691 29.3941 6.3667 29.0782 6.3667H24.9982H24.9949Z" fill="#2F2F2F"/>
<path d="M18.2283 42.5861H1.35643V7.40413H5.26017C5.58936 7.40413 5.85538 7.13378 5.85538 6.79923C5.85538 6.46468 5.58936 6.19434 5.26017 6.19434H0.904203C0.498532 6.19434 0.166016 6.53227 0.166016 6.94454V43.039C0.166016 43.235 0.239169 43.4208 0.375501 43.5627L0.382151 43.5695C0.521808 43.7114 0.704693 43.7892 0.900877 43.7892H18.225C18.5542 43.7892 18.8202 43.5188 18.8202 43.1843C18.8202 42.8497 18.5542 42.5794 18.225 42.5794L18.2283 42.5861Z" fill="#2F2F2F"/>
<path d="M18.2315 43.965H0.90405C0.664638 43.965 0.438526 43.8703 0.268943 43.698L0.248992 43.6709C0.0927092 43.5121 0.00292969 43.2823 0.00292969 43.0424V6.94798C0.00292969 6.44108 0.4086 6.02881 0.907375 6.02881H5.26002C5.67899 6.02881 6.02148 6.37688 6.02148 6.80267C6.02148 7.22846 5.67899 7.57653 5.26002 7.57653H1.52253V42.4206H18.2315C18.6505 42.4206 18.993 42.7687 18.993 43.1945C18.993 43.6203 18.6505 43.9683 18.2315 43.9683V43.965ZM0.50503 43.4614C0.611435 43.5696 0.754417 43.627 0.90405 43.627H18.2282C18.4643 43.627 18.6571 43.431 18.6571 43.1911C18.6571 42.9512 18.4643 42.7551 18.2282 42.7551H1.19001V7.23522H5.26002C5.4961 7.23522 5.68896 7.03922 5.68896 6.79929C5.68896 6.55936 5.4961 6.36336 5.26002 6.36336H0.90405C0.588159 6.36336 0.332121 6.62357 0.332121 6.9446V43.039C0.332121 43.1911 0.388649 43.3364 0.495054 43.4445L0.50503 43.4581V43.4614Z" fill="#2F2F2F"/>
<path d="M7.47097 9.97904H16.1463C16.4755 9.97904 16.7415 9.7087 16.7415 9.37415C16.7415 9.0396 16.4755 8.76925 16.1463 8.76925H8.11273L8.16926 8.5496C8.53835 7.12353 9.80856 6.12663 11.2583 6.12663C11.2849 6.12663 11.3149 6.12663 11.3481 6.12663C11.3548 6.12663 11.3581 6.12663 11.3647 6.12663C11.5443 6.12663 11.7106 6.04553 11.8269 5.9036C11.9433 5.75829 11.9865 5.56229 11.9433 5.38318C11.8835 5.13649 11.8535 4.87967 11.8535 4.62284C11.8535 2.8318 13.2867 1.37532 15.049 1.37532C16.8114 1.37532 18.2445 2.8318 18.2445 4.62284C18.2445 4.87967 18.2146 5.13649 18.1547 5.38318C18.1115 5.56567 18.1547 5.75829 18.2711 5.9036C18.3875 6.04891 18.5637 6.13339 18.7499 6.12663C18.7832 6.12663 18.8098 6.12663 18.8397 6.12663C20.6021 6.12663 22.0352 7.58311 22.0352 9.37415C22.0352 9.7087 22.3012 9.97904 22.6304 9.97904C22.9596 9.97904 23.2256 9.7087 23.2256 9.37415C23.2256 8.18463 22.7701 7.06608 21.9421 6.22463C21.2937 5.56567 20.4757 5.13311 19.5779 4.98104L19.4283 4.95401L19.4349 4.79856C19.4349 4.73773 19.4382 4.68029 19.4382 4.61946C19.4382 3.42994 18.9827 2.31139 18.1547 1.46994C17.3268 0.628493 16.2261 0.165527 15.0557 0.165527C13.8852 0.165527 12.7846 0.628493 11.9566 1.46994C11.1287 2.31139 10.6731 3.42994 10.6731 4.61946C10.6731 4.67691 10.6731 4.73773 10.6764 4.79856L10.6831 4.95401L10.5334 4.98104C9.63565 5.13311 8.81766 5.56229 8.16926 6.22463C7.34129 7.06608 6.88574 8.18463 6.88574 9.37415C6.88574 9.7087 7.15176 9.97904 7.48095 9.97904H7.47097Z" fill="#2F2F2F"/>
<path d="M22.6273 10.1481C22.2084 10.1481 21.8659 9.8 21.8659 9.37421C21.8659 7.67779 20.5059 6.29565 18.8367 6.29565H18.7535C18.5041 6.29565 18.2913 6.19766 18.1417 6.01179C17.9921 5.82593 17.9389 5.57586 17.9921 5.34607C18.0486 5.10952 18.0752 4.86621 18.0752 4.62628C18.0752 2.92986 16.7152 1.54772 15.046 1.54772C13.3767 1.54772 12.0167 2.92986 12.0167 4.62628C12.0167 4.86959 12.0433 5.1129 12.0999 5.34607C12.1564 5.57924 12.0999 5.82593 11.9502 6.01179C11.8039 6.19428 11.5911 6.29903 11.3584 6.29903H11.252C9.87533 6.29903 8.67162 7.24186 8.32248 8.59359V8.60035H16.1399C16.5589 8.60035 16.9014 8.94841 16.9014 9.37421C16.9014 9.8 16.5589 10.1481 16.1399 10.1481H7.46459C7.04562 10.1481 6.70312 9.8 6.70312 9.37421C6.70312 8.13738 7.1753 6.97828 8.03652 6.10641C8.71153 5.42041 9.55944 4.97434 10.4905 4.81552H10.4971V4.80876C10.4971 4.74793 10.4971 4.68372 10.4971 4.6229C10.4971 3.38945 10.9693 2.22697 11.8305 1.3551C12.6918 0.483241 13.8356 0 15.0493 0C16.263 0 17.4068 0.479862 18.2647 1.3551C19.1226 2.22697 19.5981 3.38945 19.5981 4.6229C19.5981 4.68372 19.5981 4.74455 19.5948 4.80876V4.81552H19.6014C20.5325 4.97434 21.3837 5.42041 22.0554 6.10641C22.9133 6.97828 23.3888 8.14076 23.3888 9.37421C23.3888 9.8 23.0463 10.1481 22.6273 10.1481ZM18.84 5.95772C20.6921 5.95772 22.2017 7.48855 22.2017 9.37421C22.2017 9.61414 22.3946 9.81014 22.6307 9.81014C22.8668 9.81014 23.0596 9.61414 23.0596 9.37421C23.0596 8.22862 22.6207 7.154 21.826 6.34297C21.2009 5.70766 20.4161 5.29538 19.5516 5.14669L19.2556 5.096L19.2689 4.79186C19.2689 4.73441 19.2723 4.67697 19.2723 4.61952C19.2723 3.47393 18.8333 2.39931 18.0386 1.58828C17.2439 0.777241 16.1832 0.334552 15.0559 0.334552C13.9287 0.334552 12.8713 0.780621 12.0733 1.58828C11.2786 2.39931 10.8396 3.47393 10.8396 4.61952C10.8396 4.67697 10.8396 4.73441 10.8396 4.79186L10.8529 5.096L10.557 5.14669C9.69245 5.292 8.90771 5.70766 8.28258 6.34297C7.48786 7.15062 7.04894 8.22862 7.04894 9.37421C7.04894 9.61414 7.2418 9.81014 7.47789 9.81014H16.1532C16.3893 9.81014 16.5822 9.61414 16.5822 9.37421C16.5822 9.13428 16.3893 8.93828 16.1532 8.93828H7.90351L8.01657 8.50572C8.40561 7.00531 9.74233 5.95772 11.2686 5.95772H11.3617C11.5013 5.95772 11.6244 5.90028 11.7042 5.79552C11.7873 5.69076 11.8172 5.55221 11.7873 5.42041C11.7275 5.16021 11.6942 4.88986 11.6942 4.61952C11.6942 2.73724 13.2005 1.20303 15.0559 1.20303C16.9114 1.20303 18.4177 2.73386 18.4177 4.61952C18.4177 4.88986 18.3878 5.15683 18.3246 5.42041C18.2947 5.55221 18.3246 5.69076 18.4077 5.79552C18.4908 5.90028 18.6139 5.9611 18.7535 5.95772H18.8466H18.84Z" fill="#2F2F2F"/>
<path d="M31.0271 39.7644C30.9041 39.6968 30.2457 39.3453 29.2182 39.2372C28.7261 39.1831 28.234 39.1054 27.968 38.8857C27.6753 38.6323 27.5091 38.3045 27.5058 37.9598C27.4991 37.605 27.662 37.2637 27.9613 36.9967C28.2872 36.7061 28.7328 36.5405 29.2116 36.5337C29.6904 36.527 30.1426 36.6757 30.4785 36.9528C30.7877 37.2096 30.9606 37.5442 30.9639 37.899C30.9706 38.2302 31.2366 38.4904 31.5625 38.487C31.8883 38.4802 32.1444 38.2099 32.141 37.8787C32.1277 37.169 31.8019 36.5101 31.2233 36.0302C30.8176 35.6923 30.3189 35.4726 29.7802 35.3814L29.7702 34.7326C29.7636 34.4014 29.4975 34.1412 29.1717 34.1446C28.8458 34.1513 28.5898 34.4217 28.5931 34.7528L28.6031 35.4017C28.0677 35.5098 27.5789 35.7464 27.1832 36.0978C26.6213 36.5979 26.3154 37.267 26.3287 37.9767C26.342 38.6695 26.6545 39.3149 27.2098 39.7948C27.2098 39.7948 27.2098 39.7948 27.2132 39.7981C27.7452 40.2442 28.4634 40.3557 29.0952 40.4233C29.9265 40.5112 30.4352 40.795 30.4552 40.8052C30.9839 41.1059 31.3064 41.5959 31.3164 42.1197C31.333 43.022 30.4419 43.7722 29.3346 43.7925C28.2273 43.8128 27.3129 43.093 27.2963 42.1907C27.2896 41.8595 27.0236 41.5993 26.6978 41.6027C26.3719 41.6095 26.1158 41.8798 26.1192 42.211C26.1258 42.6064 26.2223 42.9882 26.4051 43.343C26.578 43.6776 26.8175 43.9784 27.1234 44.2284C27.5324 44.5697 28.0278 44.8029 28.5665 44.911L28.5765 45.5937C28.5831 45.9248 28.8491 46.185 29.175 46.1817C29.5009 46.1749 29.7569 45.9046 29.7536 45.5734L29.7436 44.955C30.4286 44.8705 31.0637 44.59 31.5591 44.1473C31.8551 43.8837 32.0845 43.5762 32.2475 43.2349C32.417 42.8733 32.5002 42.4881 32.4935 42.0927C32.4769 41.1397 31.9316 40.2679 31.0304 39.7576L31.0271 39.7644Z" fill="#2F2F2F"/>
<path d="M29.1619 46.3505C28.9657 46.3505 28.7795 46.2761 28.6399 46.1342C28.4936 45.9923 28.4137 45.7997 28.4104 45.5969L28.4004 45.0461C27.885 44.921 27.4095 44.6845 27.0172 44.3567C26.6946 44.0897 26.4386 43.7755 26.2557 43.4173C26.0595 43.0388 25.9598 42.6299 25.9531 42.2108C25.9531 42.0047 26.0263 41.8121 26.1659 41.6668C26.3056 41.5215 26.4951 41.437 26.6946 41.4336H26.7079C27.1169 41.4336 27.4528 41.7681 27.4627 42.1872C27.4694 42.5724 27.6623 42.934 28.0081 43.2044C28.3639 43.4848 28.8261 43.6403 29.3315 43.6234C30.349 43.6065 31.1637 42.934 31.1504 42.123C31.1437 41.6634 30.8544 41.2241 30.3756 40.9537C30.3556 40.9436 29.8735 40.6766 29.0788 40.5921C28.4237 40.5212 27.6756 40.4063 27.1103 39.9298C26.5118 39.4128 26.1759 38.7234 26.1659 37.9799C26.1526 37.2196 26.4785 36.5032 27.077 35.9693C27.4561 35.6313 27.9249 35.388 28.437 35.263L28.427 34.7527C28.427 34.5466 28.5002 34.3539 28.6399 34.2086C28.7795 34.0633 28.9691 33.9788 29.1686 33.9755C29.3614 33.9653 29.5609 34.0464 29.7039 34.1917C29.8502 34.3337 29.93 34.5263 29.9333 34.729L29.9433 35.2393C30.4587 35.3475 30.9342 35.5705 31.3266 35.8983C31.9451 36.4119 32.2942 37.1148 32.3075 37.8752C32.3142 38.2976 31.9817 38.6457 31.566 38.6558H31.5527C31.1437 38.6558 30.8045 38.3213 30.7979 37.9022C30.7946 37.5981 30.6416 37.3075 30.3723 37.0844C30.0664 36.831 29.6607 36.6924 29.2118 36.7026C28.7695 36.7093 28.3639 36.8614 28.0679 37.125C27.8052 37.3581 27.6656 37.6521 27.6689 37.9563C27.6722 38.2503 27.8185 38.5341 28.0746 38.7572C28.304 38.9498 28.7895 39.0241 29.2351 39.0715C30.2991 39.183 30.9841 39.5479 31.1105 39.6189C32.0615 40.1596 32.64 41.0855 32.66 42.0993C32.6666 42.5217 32.5769 42.9306 32.3973 43.3159C32.2277 43.6775 31.9816 44.0019 31.6691 44.2824C31.1836 44.7149 30.5784 44.9988 29.9134 45.1069L29.92 45.5766C29.9267 45.999 29.5942 46.3471 29.1785 46.3572H29.1652L29.1619 46.3505ZM26.7079 41.7715H26.7013C26.5882 41.7715 26.4852 41.8188 26.4053 41.9033C26.3255 41.9844 26.2856 42.0926 26.2856 42.2075C26.2923 42.5758 26.3821 42.9306 26.5517 43.2652C26.7146 43.5795 26.9407 43.8599 27.2267 44.0999C27.6124 44.4209 28.0846 44.6439 28.5966 44.7487L28.7263 44.7757L28.7396 45.5935C28.7396 45.7084 28.7862 45.8132 28.8693 45.8943C28.9491 45.9754 29.0622 46.0092 29.1686 46.0126C29.4013 46.0092 29.5875 45.8132 29.5842 45.5766L29.5709 44.8061L29.7205 44.7892C30.3789 44.7081 30.9741 44.4412 31.4463 44.0222C31.7256 43.7755 31.9417 43.4848 32.0947 43.1638C32.2543 42.8259 32.3308 42.4677 32.3241 42.0993C32.3075 41.2072 31.7954 40.3894 30.9475 39.9095C30.8311 39.8419 30.1994 39.5074 29.2018 39.4026C28.6831 39.3486 28.161 39.2607 27.8618 39.0106C27.5293 38.7234 27.343 38.3517 27.3364 37.9563C27.3297 37.5508 27.5126 37.1655 27.8485 36.8648C28.2043 36.5471 28.6864 36.368 29.2051 36.3579C29.7239 36.3511 30.2127 36.5133 30.5818 36.8175C30.9276 37.1047 31.1238 37.4866 31.1304 37.8921C31.1337 38.1253 31.3233 38.3145 31.5527 38.3145H31.5594C31.7921 38.3111 31.9783 38.1151 31.975 37.8786C31.965 37.2162 31.6591 36.6079 31.1171 36.1551C30.738 35.8408 30.2659 35.6279 29.7538 35.5435L29.6175 35.5198L29.6042 34.729C29.6008 34.4925 29.408 34.3033 29.1752 34.3066C28.9424 34.31 28.7562 34.506 28.7596 34.7426L28.7729 35.5333L28.6365 35.5604C28.1278 35.6617 27.6656 35.8915 27.2932 36.2193C26.7678 36.689 26.4852 37.3108 26.4951 37.9698C26.5051 38.6153 26.7977 39.2168 27.3164 39.6628C27.8152 40.0819 28.5035 40.1866 29.112 40.2508C29.96 40.3421 30.4787 40.6226 30.5352 40.653C31.1171 40.9841 31.4729 41.5282 31.4795 42.1095C31.4962 43.1064 30.5319 43.9343 29.3315 43.9546C28.7596 43.9715 28.2142 43.789 27.7986 43.4646C27.373 43.13 27.1336 42.6772 27.1236 42.1872C27.1203 41.954 26.9307 41.7648 26.7013 41.7648L26.7079 41.7715Z" fill="#2F2F2F"/>
<path d="M37.1618 36.7871C36.7329 35.7564 36.1177 34.8271 35.333 34.0329C34.5516 33.2388 33.6371 32.6136 32.623 32.1743C31.5722 31.7215 30.4549 31.4917 29.3044 31.4917C28.1539 31.4917 27.0367 31.7215 25.9859 32.1743C24.9718 32.6102 24.0573 33.2354 23.2759 34.0329C22.4945 34.8271 21.8793 35.7564 21.4471 36.7871C21.0015 37.8549 20.7754 38.9904 20.7754 40.1596C20.7754 41.3289 21.0015 42.4643 21.4471 43.5322C21.876 44.5629 22.4912 45.4922 23.2759 46.2863C24.0573 47.0805 24.9718 47.7056 25.9859 48.1449C27.0367 48.5978 28.1539 48.8276 29.3044 48.8276C30.4549 48.8276 31.5722 48.5978 32.623 48.1449C33.6371 47.709 34.5516 47.0838 35.333 46.2863C36.1144 45.4922 36.7295 44.5629 37.1618 43.5322C37.6074 42.4643 37.8335 41.3289 37.8335 40.1596C37.8335 38.9904 37.6074 37.8549 37.1618 36.7871ZM29.3044 47.736C25.1945 47.736 21.8527 44.3398 21.8527 40.163C21.8527 35.9862 25.1945 32.59 29.3044 32.59C33.4143 32.59 36.7561 35.9862 36.7561 40.163C36.7561 44.3398 33.4143 47.736 29.3044 47.736Z" fill="#2F2F2F"/>
<path d="M29.3047 49C28.1309 49 26.9937 48.7668 25.9197 48.3039C24.8855 47.8578 23.9545 47.2225 23.1565 46.4115C22.3584 45.6004 21.7333 44.6542 21.2944 43.6032C20.8421 42.5117 20.6094 41.356 20.6094 40.1631C20.6094 38.9702 20.8388 37.8145 21.2944 36.723C21.7333 35.6686 22.3584 34.7258 23.1565 33.9148C23.9545 33.1037 24.8855 32.465 25.9197 32.0223C26.9904 31.5628 28.1309 31.3296 29.3047 31.3296C30.4785 31.3296 31.6157 31.5628 32.6897 32.0223C33.7238 32.4684 34.6549 33.1037 35.4529 33.9148C36.251 34.7258 36.8794 35.672 37.315 36.723C37.7672 37.8111 37.9967 38.9702 37.9967 40.1631C37.9967 41.356 37.7672 42.5117 37.315 43.6032C36.8761 44.6542 36.251 45.6004 35.4529 46.4115C34.6549 47.2225 33.7238 47.8612 32.6897 48.3039C31.6157 48.7635 30.4785 49 29.3047 49ZM29.3047 31.6641C28.1741 31.6641 27.0801 31.8906 26.0493 32.3332C25.0551 32.7624 24.1607 33.3741 23.3925 34.1547C22.6244 34.9353 22.0226 35.8443 21.6003 36.8548C21.1647 37.9023 20.9419 39.0141 20.9419 40.1631C20.9419 41.3121 21.1647 42.4239 21.6003 43.4715C22.0226 44.4852 22.6244 45.3909 23.3925 46.1715C24.1607 46.9521 25.0551 47.5638 26.0493 47.993C27.0801 48.4357 28.1775 48.6621 29.3047 48.6621C30.4319 48.6621 31.5292 48.4357 32.56 47.993C33.5542 47.5638 34.4487 46.9521 35.2168 46.1715C35.9849 45.3909 36.5868 44.4819 37.0091 43.4715C37.4447 42.4239 37.6675 41.3121 37.6675 40.1631C37.6675 39.0141 37.4447 37.9023 37.0091 36.8548C36.5868 35.841 35.9849 34.9353 35.2168 34.1547C34.4487 33.3741 33.5542 32.7624 32.56 32.3332C31.5292 31.8906 30.4352 31.6641 29.3047 31.6641ZM29.3047 47.9051C25.105 47.9051 21.6867 44.4312 21.6867 40.1631C21.6867 35.895 25.105 32.4211 29.3047 32.4211C33.5044 32.4211 36.9226 35.895 36.9226 40.1631C36.9226 44.4312 33.5044 47.9051 29.3047 47.9051ZM29.3047 32.759C25.2879 32.759 22.0192 36.0809 22.0192 40.1631C22.0192 44.2453 25.2879 47.5672 29.3047 47.5672C33.3215 47.5672 36.5901 44.2453 36.5901 40.1631C36.5901 36.0809 33.3215 32.759 29.3047 32.759Z" fill="#2F2F2F"/>
<path d="M7.23485 16.9339H22.7335C23.0626 16.9339 23.3287 16.6636 23.3287 16.329C23.3287 15.9945 23.0626 15.7241 22.7335 15.7241H7.23485C6.90566 15.7241 6.63965 15.9945 6.63965 16.329C6.63965 16.6636 6.90566 16.9339 7.23485 16.9339Z" fill="#2F2F2F"/>
<path d="M22.7337 17.1029H7.2351C6.81613 17.1029 6.47363 16.7548 6.47363 16.329C6.47363 15.9032 6.81613 15.5552 7.2351 15.5552H22.7337C23.1527 15.5552 23.4952 15.9032 23.4952 16.329C23.4952 16.7548 23.1527 17.1029 22.7337 17.1029ZM7.2351 15.8931C6.99901 15.8931 6.80615 16.0891 6.80615 16.329C6.80615 16.569 6.99901 16.765 7.2351 16.765H22.7337C22.9698 16.765 23.1626 16.569 23.1626 16.329C23.1626 16.0891 22.9698 15.8931 22.7337 15.8931H7.2351Z" fill="#2F2F2F"/>
<path d="M7.23583 23.2767H16.8589C17.1881 23.2767 17.4541 23.0063 17.4541 22.6718C17.4541 22.3372 17.1881 22.0669 16.8589 22.0669H7.23583C6.90664 22.0669 6.64062 22.3372 6.64062 22.6718C6.64062 23.0063 6.90664 23.2767 7.23583 23.2767Z" fill="#2F2F2F"/>
<path d="M16.8552 23.4457H7.23217C6.8132 23.4457 6.4707 23.0976 6.4707 22.6718C6.4707 22.246 6.8132 21.8979 7.23217 21.8979H16.8552C17.2742 21.8979 17.6167 22.246 17.6167 22.6718C17.6167 23.0976 17.2742 23.4457 16.8552 23.4457ZM7.23549 22.2393C6.9994 22.2393 6.80655 22.4353 6.80655 22.6752C6.80655 22.9151 6.9994 23.1111 7.23549 23.1111H16.8585C17.0946 23.1111 17.2875 22.9151 17.2875 22.6752C17.2875 22.4353 17.0946 22.2393 16.8585 22.2393H7.23549Z" fill="#2F2F2F"/>
<path d="M21.9492 26.737C22.0889 26.7674 22.2319 26.7843 22.3815 26.7843C23.4555 26.7843 24.3301 25.8955 24.3301 24.804C24.3301 23.7125 23.4555 22.8237 22.3815 22.8237C21.3075 22.8237 20.433 23.7125 20.433 24.804C20.433 25.3075 20.6192 25.7671 20.9251 26.1186L18.2882 30.2717C18.1486 30.2413 18.0056 30.2244 17.856 30.2244C17.151 30.2244 16.5325 30.6063 16.1934 31.1774L13.9655 30.6367C13.8691 29.6364 13.0378 28.8524 12.0269 28.8524C10.9529 28.8524 10.0784 29.7412 10.0784 30.8327C10.0784 31.2517 10.2048 31.637 10.4242 31.958L8.20965 34.8845C8.00682 34.8101 7.78736 34.7696 7.55792 34.7696C6.48389 34.7696 5.60938 35.6584 5.60938 36.7499C5.60938 37.8414 6.48389 38.7301 7.55792 38.7301C8.63195 38.7301 9.50647 37.8414 9.50647 36.7499C9.50647 36.3308 9.37679 35.9388 9.154 35.6178L11.3652 32.6947C11.5714 32.769 11.7942 32.813 12.0236 32.813C12.7452 32.813 13.3736 32.4142 13.7095 31.8228L15.9107 32.3601C15.9872 33.3807 16.8285 34.1917 17.8526 34.1917C18.8768 34.1917 19.8012 33.303 19.8012 32.2115C19.8012 31.7079 19.615 31.2484 19.3091 30.8969L21.9459 26.7437L21.9492 26.737ZM22.3782 24.0369C22.7972 24.0369 23.1363 24.3816 23.1363 24.8074C23.1363 25.2332 22.7972 25.5779 22.3782 25.5779C21.9592 25.5779 21.62 25.2332 21.62 24.8074C21.62 24.3816 21.9592 24.0369 22.3782 24.0369ZM7.56125 37.5136C7.14228 37.5136 6.80311 37.1689 6.80311 36.7431C6.80311 36.3173 7.14228 35.9726 7.56125 35.9726C7.98022 35.9726 8.31939 36.3173 8.31939 36.7431C8.31939 37.1689 7.98022 37.5136 7.56125 37.5136ZM12.0269 31.5998C11.608 31.5998 11.2688 31.2551 11.2688 30.8293C11.2688 30.4035 11.608 30.0588 12.0269 30.0588C12.4459 30.0588 12.7851 30.4035 12.7851 30.8293C12.7851 31.2551 12.4459 31.5998 12.0269 31.5998ZM17.856 32.9752C17.437 32.9752 17.0978 32.6305 17.0978 32.2047C17.0978 31.7789 17.437 31.4342 17.856 31.4342C18.2749 31.4342 18.6141 31.7789 18.6141 32.2047C18.6141 32.6305 18.2749 32.9752 17.856 32.9752Z" fill="#2F2F2F"/>
<path d="M7.56169 38.764C6.46439 38.764 5.57324 37.8583 5.57324 36.7431C5.57324 35.628 6.46439 34.7223 7.56169 34.7223C7.77783 34.7223 7.99396 34.7595 8.1968 34.8271L10.3748 31.9479C10.1553 31.6133 10.0389 31.2281 10.0389 30.826C10.0389 29.7108 10.9301 28.8051 12.0274 28.8051C13.0449 28.8051 13.8895 29.5722 14.0025 30.5995L16.1705 31.1267C16.5363 30.5353 17.1648 30.1805 17.8531 30.1805C17.9927 30.1805 18.1291 30.194 18.2654 30.2244L20.869 26.122C20.5564 25.7536 20.3869 25.2873 20.3869 24.804C20.3869 23.6889 21.278 22.7832 22.3753 22.7832C23.4726 22.7832 24.3638 23.6889 24.3638 24.804C24.3638 25.9192 23.4726 26.8249 22.3753 26.8249C22.2356 26.8249 22.0993 26.8113 21.963 26.7809L19.3594 30.8834C19.6719 31.2518 19.8415 31.7181 19.8415 32.2013C19.8415 33.3165 18.9504 34.2222 17.8531 34.2222C16.8289 34.2222 15.9644 33.4179 15.8713 32.3838L13.7299 31.8634C13.3708 32.4717 12.719 32.8502 12.0241 32.8502C11.8046 32.8502 11.5885 32.813 11.379 32.742L9.20432 35.6144C9.42711 35.949 9.54682 36.341 9.54682 36.7465C9.54682 37.8617 8.65567 38.7673 7.55837 38.7673L7.56169 38.764ZM7.56169 34.8068C6.51094 34.8068 5.65637 35.6753 5.65637 36.7431C5.65637 37.811 6.51094 38.6795 7.56169 38.6795C8.61244 38.6795 9.46701 37.811 9.46701 36.7431C9.46701 36.3444 9.34731 35.9625 9.12452 35.6347L9.10789 35.6077L9.12785 35.584L11.359 32.6373L11.3856 32.6474C11.5918 32.7218 11.8113 32.7623 12.0307 32.7623C12.709 32.7623 13.3408 32.3906 13.68 31.7924L13.6966 31.7654L13.7265 31.7722L15.9544 32.3162V32.3467C16.0309 33.3503 16.8655 34.1377 17.8564 34.1377C18.9072 34.1377 19.7617 33.2692 19.7617 32.2013C19.7617 31.7282 19.5921 31.272 19.2796 30.9172L19.2596 30.8935L19.2763 30.8665L21.9297 26.6863L21.9563 26.6931C22.0927 26.7235 22.2356 26.7404 22.3786 26.7404C23.4294 26.7404 24.284 25.8719 24.284 24.804C24.284 23.7362 23.4294 22.8677 22.3786 22.8677C21.3279 22.8677 20.4733 23.7362 20.4733 24.804C20.4733 25.2771 20.6429 25.7333 20.9555 26.0882L20.9754 26.1118L20.9588 26.1389L18.3053 30.3191L18.2787 30.3123C18.1424 30.2819 17.9994 30.265 17.8564 30.265C17.188 30.265 16.5795 30.6131 16.2271 31.1977L16.2104 31.2247L13.9261 30.6671V30.6367C13.8263 29.6398 13.0116 28.8896 12.0274 28.8896C10.9766 28.8896 10.1221 29.7581 10.1221 30.826C10.1221 31.2213 10.2385 31.5998 10.4612 31.9276L10.4779 31.9547L8.22672 34.9284L8.1968 34.9183C7.99064 34.844 7.77783 34.8068 7.55837 34.8068H7.56169ZM7.56169 37.5575C7.11944 37.5575 6.76033 37.1926 6.76033 36.7431C6.76033 36.2937 7.11944 35.9321 7.56169 35.9321C8.00394 35.9321 8.36306 36.2971 8.36306 36.7431C8.36306 37.1892 8.00394 37.5575 7.56169 37.5575ZM7.56169 36.0166C7.166 36.0166 6.84346 36.3444 6.84346 36.7431C6.84346 37.1419 7.166 37.4731 7.56169 37.4731C7.95739 37.4731 8.27993 37.1453 8.27993 36.7431C8.27993 36.341 7.95739 36.0166 7.56169 36.0166ZM17.8564 33.0158C17.4142 33.0158 17.055 32.6508 17.055 32.2013C17.055 31.7519 17.4142 31.3903 17.8564 31.3903C18.2987 31.3903 18.6578 31.7553 18.6578 32.2013C18.6578 32.6474 18.2987 33.0158 17.8564 33.0158ZM17.8564 31.4748C17.4607 31.4748 17.1382 31.8026 17.1382 32.2013C17.1382 32.6001 17.4607 32.9313 17.8564 32.9313C18.2521 32.9313 18.5746 32.6035 18.5746 32.2013C18.5746 31.7992 18.2521 31.4748 17.8564 31.4748ZM12.0274 31.6404C11.5851 31.6404 11.2293 31.2754 11.2293 30.826C11.2293 30.3765 11.5885 30.0149 12.0274 30.0149C12.4663 30.0149 12.8288 30.3799 12.8288 30.826C12.8288 31.272 12.4696 31.6404 12.0274 31.6404ZM12.0274 30.1028C11.6317 30.1028 11.3125 30.4306 11.3125 30.8293C11.3125 31.2281 11.635 31.5593 12.0274 31.5593C12.4198 31.5593 12.7456 31.2315 12.7456 30.8293C12.7456 30.4272 12.4231 30.1028 12.0274 30.1028ZM22.3786 25.6184C21.9364 25.6184 21.5773 25.2535 21.5773 24.8074C21.5773 24.3613 21.9364 23.993 22.3786 23.993C22.8209 23.993 23.1767 24.358 23.1767 24.8074C23.1767 25.2569 22.8176 25.6184 22.3786 25.6184ZM22.3786 24.0775C21.9829 24.0775 21.6604 24.4053 21.6604 24.8074C21.6604 25.2095 21.9829 25.534 22.3786 25.534C22.7743 25.534 23.0935 25.2062 23.0935 24.8074C23.0935 24.4087 22.771 24.0775 22.3786 24.0775Z" fill="#2F2F2F"/>
</g>
<defs>
<clipPath id="clip0_107_977">
<rect width="38" height="49" fill="white"/>
</clipPath>
</defs>
</svg>
