<svg width="20" height="37" viewBox="0 0 20 37" fill="none" xmlns="http://www.w3.org/2000/svg">
<path d="M5.0577 26.321C4.30684 24.3612 4.28084 21.5276 5.43475 19.369C7.38176 15.7267 12.0494 14.5463 12.0494 10.2454C12.0494 9.16277 11.6398 8.25954 10.98 7.64651C9.24427 6.03569 6.2051 6.57698 3.99805 7.4313C2.59061 7.97911 1.25792 8.80735 0 9.91601V2.32167C2.69462 0.707588 5.85405 0 8.95498 0C15.3096 0 19.9967 2.75861 19.9967 9.13669C19.9967 14.9506 15.9044 17.2038 13.0668 19.8875C11.4903 21.3776 11.0678 22.5874 11.0678 24.0254C11.0678 24.7688 11.2725 25.7047 11.6724 26.321H5.0577ZM8.78271 37C2.60686 37 2.5451 28.672 8.78271 28.672C14.9261 28.672 14.9358 37 8.78271 37Z" fill="#2F2F2F"/>
</svg>
