<svg width="38" height="43" viewBox="0 0 38 43" fill="none" xmlns="http://www.w3.org/2000/svg">
<g clip-path="url(#clip0_108_1005)">
<path d="M30.4298 28.0546C28.5024 28.0546 26.7384 28.771 25.4022 29.9477L14.3521 24.9137C14.8568 23.9126 15.1452 22.7834 15.1452 21.5925C15.1452 20.4016 14.852 19.2392 14.3281 18.2239L25.4407 13.0855C26.7721 14.2432 28.5216 14.9454 30.4298 14.9454C34.6066 14.9454 38 11.591 38 7.47269C38 3.35441 34.6066 0 30.4298 0C26.253 0 22.8596 3.35441 22.8596 7.47269C22.8596 8.6873 23.1576 9.83074 23.6767 10.8461L12.5641 15.9797C11.2279 14.822 9.48318 14.1151 7.5702 14.1151C3.39337 14.1151 0 17.4695 0 21.5878C0 25.7061 3.39818 29.0605 7.5702 29.0605C9.5024 29.0605 11.2664 28.3393 12.6074 27.1626L23.6527 32.1966C23.1432 33.1977 22.8596 34.3269 22.8596 35.5226C22.8596 39.6456 26.2578 42.9953 30.4298 42.9953C34.6018 42.9953 38 39.6409 38 35.5226C38 31.4043 34.6018 28.0499 30.4298 28.0499V28.0546ZM30.4298 2.77083C33.0589 2.77083 35.1978 4.88216 35.1978 7.47744C35.1978 10.0727 33.0589 12.184 30.4298 12.184C27.8007 12.184 25.6618 10.0727 25.6618 7.47744C25.6618 4.88216 27.8007 2.77083 30.4298 2.77083ZM7.5702 26.2991C4.94106 26.2991 2.80218 24.1878 2.80218 21.5925C2.80218 18.9972 4.94106 16.8859 7.5702 16.8859C10.1993 16.8859 12.3382 18.9972 12.3382 21.5925C12.3382 24.1878 10.1993 26.2991 7.5702 26.2991ZM30.4298 40.2339C27.8007 40.2339 25.6618 38.1226 25.6618 35.5273C25.6618 32.932 27.8007 30.8207 30.4298 30.8207C33.0589 30.8207 35.1978 32.932 35.1978 35.5273C35.1978 38.1226 33.0589 40.2339 30.4298 40.2339Z" fill="white"/>
</g>
<defs>
<clipPath id="clip0_108_1005">
<rect width="38" height="43" fill="white"/>
</clipPath>
</defs>
</svg>
