<?xml version="1.0" encoding="UTF-8"?>
<svg id="Layer_1" data-name="Layer 1" xmlns="http://www.w3.org/2000/svg" xmlns:xlink="http://www.w3.org/1999/xlink" version="1.1" viewBox="0 0 454 358">
  <defs>
    <style>
      .cls-1 {
        clip-path: url(#clippath);
      }

      .cls-2 {
        fill: none;
      }

      .cls-2, .cls-3, .cls-4, .cls-5, .cls-6, .cls-7 {
        stroke-width: 0px;
      }

      .cls-3 {
        fill: #002b04;
      }

      .cls-4 {
        fill: #003d23;
      }

      .cls-5 {
        fill: #000;
      }

      .cls-6 {
        fill: #007e4e;
      }

      .cls-7 {
        fill: #00e997;
      }
    </style>
    <clipPath id="clippath">
      <rect class="cls-2" x="231.7" y="144.2" width="151.9" height="155"/>
    </clipPath>
  </defs>
  <path class="cls-3" d="M99.7,36.7l-23.2,33.6-4-1.9,23.2-33.5,4,1.9ZM74.1,53.2c-4.5,0-7.7-3.5-7.7-8.4s3.2-8.7,7.7-8.7,7.7,3.5,7.7,8.4-3.2,8.7-7.7,8.7ZM74.1,49.5c2.2,0,3.7-2,3.7-4.9s-1.5-4.8-3.6-4.8-3.7,2-3.7,4.9,1.5,4.8,3.6,4.8ZM97.8,69.7c-4.6,0-7.7-3.5-7.7-8.5s3.2-8.7,7.7-8.6c4.5,0,7.7,3.5,7.7,8.4s-3.2,8.7-7.7,8.7ZM97.8,65.9c2.2,0,3.7-2,3.7-4.9s-1.5-4.8-3.6-4.8-3.7,2-3.7,4.9,1.5,4.8,3.7,4.8ZM156.7,20.8c0,22.2-30,22.2-32.8,37.8h31.6v10.4h-44.6v-6.3c0-25.7,34.2-24.5,34.2-41.5s-4.3-10.5-10.9-10.5-12.5,4.7-12.7,13.3h-12.1c1.1-15.2,11.4-23.7,25-23.7s22.5,8.3,22.5,20.4ZM188.2,70.4c-16,0-26.7-13.8-26.7-35.2S171.9.3,188.2.3s26.6,13.6,26.6,34.8-10.4,35.2-26.6,35.2ZM188.2,59.7c9.1,0,15-9.6,15-24.6s-5.9-24.3-15-24.3-15.1,9.5-15.1,24.3,5.9,24.6,15.1,24.6Z"/>
  <g class="cls-1">
    <g>
      <path class="cls-6" d="M305,153.7c0-.6-.5-1-1-1-40,.5-72.3,33.1-72.3,73.3s32.8,73.3,73.3,73.3,72.8-32.3,73.3-72.3c0-.6-.4-1-1-1h-71.3c-.6,0-1-.4-1-1v-71.3Z"/>
      <path class="cls-4" d="M309.4,213.1c-.4,1-1.9.8-1.9-.4v-66.8c0-.6.4-1,1-1,8.5.1,16.6,1.7,24.1,4.4.5.2.8.8.6,1.3l-23.8,62.5Z"/>
      <path class="cls-7" d="M308,222c-.3.7.2,1.4.9,1.4h68.8c.6,0,1-.5,1-1-.4-29.9-18.2-55.5-43.6-66.5-.5-.2-1.1,0-1.3.5l-25.9,65.6Z"/>
    </g>
  </g>
  <circle class="cls-5" cx="250.5" cy="40.5" r="2.5"/>
  <rect class="cls-5" x="249" y="40" width="73" height="1"/>
  <rect class="cls-5" x="322" y="40" width="1" height="107"/>
  <g>
    <path class="cls-3" d="M14,101c0,3.6-2.3,6-6,6s-6-2.4-6-6,2.3-6,6-6,6,2.5,6,6ZM4.5,101.1c0,2.6,1.4,4.1,3.5,4.1s3.6-1.5,3.6-4.1-1.4-4.2-3.6-4.2-3.5,1.5-3.5,4.2Z"/>
    <path class="cls-3" d="M24.4,97.1h-6v3.4h5.1v1.8h-5.1v4.6h-2.3v-11.6h8.3v1.8Z"/>
    <path class="cls-3" d="M38.5,97.1h-3.8v9.8h-2.3v-9.8h-3.8v-1.8h9.9v1.8Z"/>
    <path class="cls-3" d="M50.3,106.8h-2.3v-4.8h-5.5v4.8h-2.3v-11.6h2.3v5h5.5v-5h2.3v11.6Z"/>
    <path class="cls-3" d="M61.6,97.1h-6.1v3.2h5.3v1.8h-5.3v2.9h6.3v1.8h-8.6v-11.6h8.5v1.8Z"/>
    <path class="cls-3" d="M76.6,97.1h-6v3.4h5.1v1.8h-5.1v4.6h-2.3v-11.6h8.3v1.8Z"/>
    <path class="cls-3" d="M86.9,97.1h-6.1v3.2h5.3v1.8h-5.3v2.9h6.3v1.8h-8.6v-11.6h8.5v1.8Z"/>
    <path class="cls-3" d="M95.2,95.3c2.4,0,3.8,1.6,3.8,3.6s-.9,2.8-2.4,3.3l2.2,4.6h-2.5l-1.9-4.4h-2.8v4.4h-2.3v-11.6h5.9ZM91.6,97.1v3.5h3.1c1.1,0,1.8-.8,1.8-1.7s-.7-1.8-1.8-1.8h-3.1Z"/>
    <path class="cls-3" d="M109.6,97.1h-3.8v9.8h-2.3v-9.8h-3.8v-1.8h9.9v1.8Z"/>
    <path class="cls-3" d="M113.6,106.8h-2.3v-11.6h2.3v11.6Z"/>
    <path class="cls-3" d="M118.7,105h5.7v1.9h-8v-11.6h2.3v9.7Z"/>
    <path class="cls-3" d="M128.5,106.8h-2.3v-11.6h2.3v11.6Z"/>
    <path class="cls-3" d="M139.6,96.8l-6.3,8.3h3.1c0,0,3.3,0,3.3,0v1.8h-9.2v-1.5l6.3-8.3h-3.1s-2.9,0-2.9,0v-1.8h8.9v1.5Z"/>
    <path class="cls-3" d="M150.2,97.1h-6.1v3.2h5.3v1.8h-5.3v2.9h6.3v1.8h-8.6v-11.6h8.5v1.8Z"/>
    <path class="cls-3" d="M158.5,95.3c2.4,0,3.8,1.6,3.8,3.6s-.9,2.8-2.4,3.3l2.2,4.6h-2.5l-1.9-4.4h-2.8v4.4h-2.3v-11.6h5.9ZM154.9,97.1v3.5h3.1c1.1,0,1.8-.8,1.8-1.7s-.7-1.8-1.8-1.8h-3.1Z"/>
    <path class="cls-3" d="M178.1,102.5c0,2.9-2,4.5-4.9,4.5s-4.9-1.8-4.9-4.5v-7.3h2.3v7.4c0,1.7,1.2,2.6,2.6,2.6s2.5-.9,2.5-2.6v-7.4h2.3v7.3Z"/>
    <path class="cls-3" d="M188.7,96l-.7,1.8c-.3-.1-1.6-.9-3.4-.9s-2.1.6-2.1,1.4c0,1.1,1.2,1.4,2.5,1.7,2.3.6,4.1,1.2,4.1,3.5s-1.9,3.5-4.6,3.5-3.5-.5-4.5-1l.6-1.8c.8.4,2.1,1,3.9,1s2.3-.6,2.3-1.4c0-1.1-1.1-1.3-2.5-1.7-2-.5-4.1-1.1-4.1-3.6s2-3.5,4.4-3.5,3.2.4,4.3,1Z"/>
    <path class="cls-3" d="M199.5,97.1h-6.1v3.2h5.3v1.8h-5.3v2.9h6.3v1.8h-8.6v-11.6h8.5v1.8Z"/>
    <path class="cls-3" d="M206.9,95.3c1.2,0,2.1.3,2.8.7,1.8,1.1,2.6,3,2.6,5,0,2.1-.8,4.1-2.6,5.1-.7.4-1.7.7-2.8.7h-5v-11.6h5ZM204.2,97.1v7.9h2.1c.9,0,1.9-.3,2.5-1,.7-.7,1-1.7,1-3.1s-.5-2.6-1.3-3.3c-.6-.5-1.4-.7-2.2-.7h-2.1Z"/>
    <path class="cls-3" d="M53.2,130.8h-2.3v-11.6h2.3v11.6Z"/>
    <path class="cls-3" d="M66,130.8h-2.4l-5.2-8v8h-2.3v-11.6h2.4l5.2,7.8v-7.8h2.3v11.6Z"/>
    <path class="cls-3" d="M81.5,121.1h-3.8v9.8h-2.3v-9.8h-3.8v-1.8h9.9v1.8Z"/>
    <path class="cls-3" d="M92.7,126.5c0,2.9-2,4.5-4.9,4.5s-4.9-1.8-4.9-4.5v-7.3h2.3v7.4c0,1.7,1.2,2.6,2.6,2.6s2.5-.9,2.5-2.6v-7.4h2.3v7.3Z"/>
    <path class="cls-3" d="M101.1,119.3c2.4,0,3.8,1.6,3.8,3.6s-.9,2.8-2.4,3.3l2.2,4.6h-2.5l-1.9-4.4h-2.8v4.4h-2.3v-11.6h5.9ZM97.5,121.1v3.5h3.1c1.1,0,1.8-.8,1.8-1.7s-.7-1.8-1.8-1.8h-3.1Z"/>
    <path class="cls-3" d="M112.8,123.7l4.3,7.1h-2.8l-3.1-5.3-2,2.2v3.1h-2.3v-11.6h2.3v5.6l5-5.6h2.7l-4.1,4.5Z"/>
    <path class="cls-3" d="M127.1,121.1h-6.1v3.2h5.3v1.8h-5.3v2.9h6.3v1.8h-8.6v-11.6h8.5v1.8Z"/>
    <path class="cls-3" d="M132.4,130.8v-4.5l-4.2-7.1h2.4l2.9,5.2,2.9-5.2h2.4l-4.2,7.1v4.5h-2.3Z"/>
    <path class="cls-3" d="M146.5,130.8h-2.3v-11.6h2.3v11.6Z"/>
    <path class="cls-3" d="M157.3,120l-.7,1.8c-.3-.1-1.6-.9-3.4-.9s-2.1.6-2.1,1.4c0,1.1,1.2,1.4,2.5,1.7,2.3.6,4.1,1.2,4.1,3.5s-1.9,3.5-4.6,3.5-3.5-.5-4.5-1l.6-1.8c.8.4,2.1,1,3.9,1s2.3-.6,2.3-1.4c0-1.1-1.1-1.3-2.5-1.7-2-.5-4.1-1.1-4.1-3.6s2-3.5,4.4-3.5,3.2.4,4.3,1Z"/>
    <path class="cls-3" d="M166.4,130.8h-2.3v-11.6h2.3v11.6Z"/>
    <path class="cls-3" d="M178.8,119.9l-.6,1.7c-.9-.4-1.7-.7-2.9-.7-2.9,0-4.2,1.7-4.2,4.1s1.4,4.2,3.9,4.2,2-.3,2.5-.8v-2h-2.9v-1.7h4.7v4.6c-1.2,1.2-2.7,1.7-4.6,1.7-3.4,0-6.1-2.1-6.1-6s2.6-6,6.3-6,2.8.3,3.9.9Z"/>
    <path class="cls-3" d="M189.6,120l-.7,1.8c-.3-.1-1.6-.9-3.4-.9s-2.1.6-2.1,1.4c0,1.1,1.2,1.4,2.5,1.7,2.3.6,4.1,1.2,4.1,3.5s-1.9,3.5-4.6,3.5-3.5-.5-4.5-1l.6-1.8c.8.4,2.1,1,3.9,1s2.3-.6,2.3-1.4c0-1.1-1.1-1.3-2.5-1.7-2-.5-4.1-1.1-4.1-3.6s2-3.5,4.4-3.5,3.2.4,4.3,1Z"/>
    <path class="cls-3" d="M202.5,130.8h-2.4l-1-2.7h-5.2l-1,2.7h-2.3l4.5-11.6h3l4.5,11.6ZM194.6,126.4h3.9l-1.9-5.1h0l-1.9,5.1Z"/>
    <path class="cls-3" d="M212,120l-.7,1.8c-.3-.1-1.6-.9-3.4-.9s-2.1.6-2.1,1.4c0,1.1,1.2,1.4,2.5,1.7,2.3.6,4.1,1.2,4.1,3.5s-1.9,3.5-4.6,3.5-3.5-.5-4.5-1l.6-1.8c.8.4,2.1,1,3.9,1s2.3-.6,2.3-1.4c0-1.1-1.1-1.3-2.5-1.7-2-.5-4.1-1.1-4.1-3.6s2-3.5,4.4-3.5,3.2.4,4.3,1Z"/>
  </g>
</svg>