<svg width="492" height="277" viewBox="0 0 492 277" fill="none" xmlns="http://www.w3.org/2000/svg">
<path d="M491.449 232.557L487.35 227.764L454.091 188.962L442.831 198.548L465.639 225.166L393 225.166L393 239.948L465.639 239.948L442.831 266.567L454.091 276.152L487.35 237.35L491.449 232.557Z" fill="#42FF00"/>
<path d="M41.7486 249.785C41.7486 255.308 37.2715 259.785 31.7486 259.785H10.1045C4.58164 259.785 0.104492 255.308 0.104492 249.785L0.104492 27.906C0.104492 25.4331 1.02075 23.0479 2.67634 21.211L13.4984 9.20379C17.4702 4.79708 24.383 4.79708 28.3547 9.20379L39.1768 21.211C40.8324 23.0479 41.7486 25.4331 41.7486 27.906L41.7486 249.785Z" fill="#1C754F"/>
<path d="M191 249.962C191 255.485 186.523 259.962 181 259.962H159.154C153.631 259.962 149.154 255.485 149.154 249.962L149.154 76.1815C149.154 73.49 150.239 70.9121 152.164 69.0306L163.087 58.3528C166.973 54.554 173.181 54.554 177.067 58.3528L187.991 69.0306C189.915 70.9121 191 73.49 191 76.1815L191 249.962Z" fill="#00E292"/>
<path d="M91.4908 249.786C91.4908 255.308 87.0137 259.786 81.4908 259.786H59.8467C54.3238 259.786 49.8467 255.308 49.8467 249.786L49.8467 120.343C49.8467 117.87 50.7629 115.485 52.4185 113.648L63.2406 101.641C67.2123 97.2341 74.1251 97.2341 78.0969 101.641L88.919 113.648C90.5745 115.485 91.4908 117.87 91.4908 120.343L91.4908 249.786Z" fill="#007E4E"/>
<path d="M141.233 249.786C141.233 255.308 136.755 259.786 131.233 259.786H109.588C104.066 259.786 99.5884 255.308 99.5884 249.786L99.5884 166.575C99.5884 164.102 100.505 161.717 102.16 159.88L112.982 147.873C116.954 143.466 123.867 143.466 127.839 147.873L138.661 159.88C140.316 161.717 141.233 164.102 141.233 166.575V249.786Z" fill="#00BD79"/>
</svg>
