<?xml version="1.0" encoding="UTF-8"?>
<svg id="Layer_1" data-name="Layer 1" xmlns="http://www.w3.org/2000/svg" xmlns:xlink="http://www.w3.org/1999/xlink" version="1.1" viewBox="0 0 454 358">
  <defs>
    <style>
      .cls-1 {
        clip-path: url(#clippath);
      }

      .cls-2 {
        fill: none;
      }

      .cls-2, .cls-3, .cls-4, .cls-5, .cls-6, .cls-7 {
        stroke-width: 0px;
      }

      .cls-3 {
        fill: #002b04;
      }

      .cls-4 {
        fill: #003d23;
      }

      .cls-5 {
        fill: #000;
      }

      .cls-6 {
        fill: #007e4e;
      }

      .cls-7 {
        fill: #00e997;
      }
    </style>
    <clipPath id="clippath">
      <rect class="cls-2" x="231.7" y="144.2" width="151.9" height="155"/>
    </clipPath>
  </defs>
  <path class="cls-3" d="M4.3,107v-9.8H.6v-1.9h9.7v1.9h-3.7v9.8h-2.3ZM16.5,107.2c-1,0-1.9-.2-2.6-.5-.7-.3-1.3-.8-1.7-1.5s-.6-1.5-.6-2.5v-7.3h2.2v7.3c0,.9.2,1.6.7,2,.5.5,1.1.7,2,.7s1.5-.2,2-.7.7-1.1.7-2v-7.3h2.2v7.3c0,1-.2,1.9-.6,2.5-.4.7-1,1.2-1.7,1.5s-1.6.5-2.7.5h.1ZM13.8,94.1v-1.9h1.9v1.9h-1.9ZM17.3,94.1v-1.9h1.9v1.9h-1.9ZM23.6,107v-11.7h6.1c.9,0,1.6,0,2.1.4.6.3,1,.7,1.3,1.3.3.5.4,1.2.4,1.9s-.2,1.4-.5,2-.8,1-1.5,1.3l2.4,4.7h-2.4l-2.1-4.3h-3.6v4.3h-2.2ZM25.8,100.8h3.8c.6,0,1-.2,1.3-.5s.5-.8.5-1.4,0-.7-.2-.9c-.1-.3-.3-.5-.6-.6s-.6-.2-1-.2h-3.8s0,3.6,0,3.6ZM35.4,107v-11.7h2.2v5.4l5.2-5.4h2.7l-4.5,4.7,4.6,6.9h-2.6l-3.5-5.4-1.9,1.6v3.8h-2.2ZM46.9,107v-11.7h2.2v11.7h-2.2ZM47,94.1v-2h2v2h-2ZM54.7,107v-4.7l-4.5-6.9h2.5l3.1,4.9h0l3-4.9h2.4l-4.5,6.9v4.7h-2.2.2ZM62.5,107v-11.7h9.1v1.9h-6.9v2.9h6.1v1.9h-6.1v3.1h7v1.9s-9.2,0-9.2,0ZM73.6,100.2v-.9c.3,0,.5-.2.7-.3.2-.2.3-.4.4-.7,0-.3,0-.6,0-.9h-1.1v-2.2h2.2v2c0,.7,0,1.2-.3,1.6-.2.4-.5.7-.8.9-.3.2-.7.3-1.1.4h0ZM78,107v-11.7h4.7c1.2,0,2.2.2,3,.6s1.5,1.1,1.9,1.9c.5.8.7,1.9.7,3.3s-.2,2.4-.7,3.3-1.1,1.5-1.9,1.9-1.8.6-3,.6h-4.7ZM80.2,105.1h2.5c.5,0,1,0,1.4-.2s.8-.4,1.1-.7.5-.7.6-1.2.2-1,.2-1.6v-.4c0-.6,0-1.2-.2-1.6,0-.5-.4-.9-.6-1.2-.3-.3-.6-.6-1.1-.7-.4-.2-.9-.2-1.4-.2h-2.5v7.9h0ZM90.1,107v-11.7h9.1v1.9h-6.9v2.9h6.1v1.9h-6.1v3.1h7v1.9s-9.2,0-9.2,0ZM107.3,107v-11.7h2.2v5.4l5.2-5.4h2.7l-4.5,4.7,4.6,6.9h-2.6l-3.5-5.4-1.9,1.6v3.8h-2.2,0ZM123.6,107.2c-1,0-1.9-.2-2.6-.5s-1.3-.8-1.7-1.5c-.4-.7-.6-1.5-.6-2.5v-7.3h2.2v7.3c0,.9.2,1.6.7,2,.5.5,1.1.7,2,.7s1.5-.2,2-.7.7-1.1.7-2v-7.3h2.2v7.3c0,1-.2,1.9-.6,2.5-.4.7-1,1.2-1.7,1.5s-1.6.5-2.7.5h0ZM130.7,107v-11.7h2.2v9.7h5.8v1.9h-8.1.1ZM140.1,107v-11.7h2.2v9.7h5.8v1.9h-8.1.1ZM148.2,107l4.5-11.7h2.8l4.6,11.7h-2.4l-.9-2.5h-5.3l-.9,2.5h-2.4ZM152.1,102.6h3.9l-1.2-3.2c0,0-.1-.3-.2-.4,0-.2-.1-.4-.2-.6,0-.2-.1-.4-.2-.6,0-.2-.1-.4-.2-.6h0c0,.2-.2.5-.3.8,0,.3-.2.6-.3.8,0,.3-.2.5-.2.6l-1.2,3.2h0ZM161.1,107v-11.7h2.1l5,6.9s.1.2.2.3c0,0,.2.2.2.3s.1.2.1.3h0v-7.8h2.1v11.7h-2.1l-5-6.9c0,0-.2-.3-.3-.5s-.2-.3-.2-.4h0v7.9h-2.1ZM173.3,107v-11.7h2.2v11.7h-2.2ZM177.7,107v-11.7h2.2v9.7h5.8v1.9h-8.1.1ZM185.9,107l4.5-11.7h2.8l4.6,11.7h-2.4l-.9-2.5h-5.3l-.9,2.5h-2.4ZM189.8,102.6h3.9l-1.2-3.2c0,0-.1-.3-.2-.4,0-.2-.1-.4-.2-.6,0-.2-.1-.4-.2-.6,0-.2-.1-.4-.2-.6h0c0,.2-.2.5-.3.8,0,.3-.2.6-.3.8,0,.3-.2.5-.2.6l-1.2,3.2h0ZM198.8,107v-11.7h2.1l5,6.9s.1.2.2.3c0,0,.2.2.2.3s.1.2.1.3h0v-7.8h2.1v11.7h-2.1l-5-6.9c0,0-.2-.3-.3-.5s-.2-.3-.2-.4h0v7.9h-2.1ZM69.6,131.2c-1.8,0-3.2-.5-4.2-1.4-1-1-1.5-2.5-1.5-4.6s.2-2.5.7-3.4,1.2-1.6,2-2c.9-.4,2-.7,3.2-.7s1.5,0,2.1.3c.7.2,1.2.4,1.7.8.5.3.9.8,1.2,1.3.3.5.4,1.1.4,1.9h-2.3c0-.4,0-.7-.3-1-.2-.3-.4-.5-.7-.7-.3-.2-.6-.4-1-.4-.4,0-.8-.2-1.2-.2-.6,0-1.2,0-1.6.3-.5.2-.9.4-1.2.7-.3.3-.5.7-.7,1.2-.1.5-.2,1.1-.2,1.8v.4c0,.9.1,1.7.4,2.3.3.6.7,1,1.2,1.3s1.2.4,2,.4,1.3-.1,1.8-.3.9-.5,1.2-.9c.3-.4.4-.9.4-1.4h0c0,0-3.7,0-3.7,0v-1.8h5.9v6.3h-1.6l-.2-1.3c-.3.3-.7.6-1.1.9-.4.2-.8.4-1.3.5s-1,.2-1.6.2l.2-.4ZM82.3,131.2c-1,0-1.9-.2-2.6-.5s-1.3-.8-1.7-1.5c-.4-.7-.6-1.5-.6-2.5v-7.3h2.2v7.3c0,.9.2,1.6.7,2,.5.5,1.1.7,2,.7s1.5-.2,2-.7.7-1.1.7-2v-7.3h2.2v7.3c0,1-.2,1.9-.6,2.5-.4.7-1,1.2-1.7,1.5s-1.6.5-2.7.5h0ZM79.6,118.1v-1.9h1.9v1.9h-1.9ZM83.1,118.1v-1.9h1.9v1.9h-1.9ZM89.4,131v-11.7h6.4c.6,0,1.2,0,1.7.4.5.2.9.6,1.2,1s.4.9.4,1.5,0,.8-.3,1.2c-.2.4-.4.7-.7.9-.3.2-.6.4-1,.5h0c.4.2.8.3,1.2.6.3.2.6.6.8,1s.3.8.3,1.3-.2,1.3-.5,1.8-.7.8-1.3,1.1c-.5.2-1.1.3-1.8.3h-6.4ZM91.6,129.1h3.9c.5,0,.8-.1,1.1-.4.3-.3.5-.7.5-1.2s0-.6-.2-.8c0-.2-.3-.4-.6-.5-.2,0-.6-.2-1-.2h-3.7v3.2h0ZM91.6,124.1h3.6c.3,0,.6,0,.9-.2.2,0,.4-.3.5-.5s.2-.5.2-.7c0-.5,0-.9-.4-1.1-.3-.2-.6-.4-1-.4h-3.7v2.9h0ZM101,131v-11.7h6.1c.9,0,1.6,0,2.1.4.6.3,1,.7,1.3,1.3s.4,1.2.4,1.9-.2,1.4-.5,2-.8,1-1.5,1.3l2.4,4.7h-2.4l-2.1-4.3h-3.6v4.3h-2.2ZM103.2,124.8h3.8c.6,0,1-.2,1.3-.5s.5-.8.5-1.4,0-.7-.2-.9c0-.3-.3-.5-.6-.6s-.6-.2-1-.2h-3.8v3.6ZM112.9,131v-11.7h9.1v1.9h-6.9v2.9h6.1v1.9h-6.1v3.1h7v1.9s-9.2,0-9.2,0ZM124,131v-11.7h2.1l5,6.9s0,.2.2.3c0,0,.2.2.2.3s0,.2,0,.3h0v-7.8h2.1v11.7h-2.1l-5-6.9c0,0-.2-.3-.3-.5,0-.2-.2-.3-.2-.4h0v7.9h-2.1,0ZM136.1,131v-11.7h2.2v11.7h-2.2ZM136.2,118.1v-2h2v2h-2ZM140.5,131v-11.7h2.1l5,6.9s0,.2.2.3c0,0,.2.2.2.3s0,.2,0,.3h0v-7.8h2.1v11.7h-2.1l-5-6.9c0,0-.2-.3-.3-.5,0-.2-.2-.3-.2-.4h0v7.9h-2.1,0ZM157.6,131l8.5-11.7h1.6l-8.6,11.7h-1.6,0ZM158.7,125.2c-.6,0-1.1,0-1.5-.3-.4-.2-.7-.5-1-1-.2-.4-.3-1.1-.3-1.8s0-1.4.3-1.9c.2-.4.5-.8,1-.9.4-.2.9-.3,1.5-.3s1.1,0,1.5.3c.4.2.7.5.9.9.2.4.3,1.1.3,1.9s0,1.4-.3,1.9c-.2.4-.5.8-.9.9s-.9.3-1.5.3ZM158.7,124c.5,0,.8-.2.9-.5s.2-.7.2-1.2v-.2c0-.3,0-.6,0-.9,0-.3-.2-.5-.3-.6-.2,0-.4-.2-.7-.2-.5,0-.8.2-.9.5s-.2.7-.2,1.2v.2c0,.5,0,.9.2,1.2.2.3.5.5.9.5ZM166.6,131.2c-.6,0-1.1,0-1.5-.3-.4-.2-.7-.5-1-1-.2-.4-.3-1.1-.3-1.8s0-1.4.3-1.9c.2-.4.5-.8,1-.9.4-.2.9-.3,1.5-.3s1.1,0,1.5.3c.4.2.7.5,1,.9.2.4.3,1.1.3,1.9s0,1.4-.3,1.9c-.2.4-.5.8-1,.9-.4.2-.9.3-1.5.3h0ZM166.6,129.9c.5,0,.8-.2.9-.5s.2-.7.2-1.3v-.2c0-.3,0-.6,0-.9,0-.3-.2-.5-.3-.6-.2,0-.4-.2-.7-.2-.5,0-.8.2-.9.5s-.2.7-.2,1.2v.2c0,.5,0,.9.2,1.3,0,.3.4.5.9.5ZM171.4,131v-.6c0-.5,0-1,.3-1.4.2-.4.4-.8.7-1.1.3-.4.6-.7,1-1s.8-.6,1.2-.9c.5-.4.9-.7,1.3-1.1s.8-.7,1-1.2c.3-.4.4-.9.4-1.4s0-.5-.2-.7c0-.2-.3-.4-.6-.6-.2-.2-.6-.2-1-.2s-.8,0-1.1.2c-.3,0-.5.3-.6.6,0,.3-.2.6-.2,1v.7h-2.1v-.7c0-.8.2-1.5.6-2s.9-.9,1.5-1.1,1.3-.4,2.1-.4,1.4,0,1.9.3c.5.2.9.5,1.2.9s.5.7.6,1.1c.1.4.2.8.2,1.1,0,.5,0,1-.3,1.5-.2.4-.4.9-.8,1.3-.3.4-.7.8-1.2,1.1-.4.4-.9.7-1.4,1.1-.3.2-.5.4-.8.5-.2.2-.5.4-.7.5-.2.2-.3.4-.4.5h5.6v1.9h-8.2ZM184.8,131.2c-.6,0-1.2,0-1.7-.3-.5-.2-.9-.5-1.3-1-.4-.5-.6-1.1-.8-1.8-.2-.8-.3-1.8-.3-3s0-2.2.3-2.9c.2-.8.4-1.4.8-1.9.4-.5.8-.8,1.3-1s1.1-.3,1.7-.3,1.2,0,1.7.3c.5.2.9.5,1.3,1,.4.5.6,1.1.8,1.9s.3,1.8.3,2.9,0,2.2-.3,3c-.2.8-.4,1.4-.8,1.8-.4.5-.8.8-1.3,1s-1,.3-1.7.3ZM184.8,129.5c.5,0,.9-.1,1.2-.4.3-.3.5-.7.5-1.3.1-.6.2-1.3.2-2.1v-.9c0-.9,0-1.6-.2-2.2,0-.6-.3-1-.5-1.3-.3-.3-.7-.4-1.2-.4s-.9,0-1.2.4-.5.7-.6,1.3c0,.6-.1,1.3-.1,2.1v.9c0,.9,0,1.6.1,2.2.1.6.3,1,.6,1.3s.7.4,1.2.4ZM190.6,124.2v-.9c.3,0,.5-.2.7-.3.2-.2.3-.4.4-.7,0-.3.1-.6.1-.9h-1.1v-2.2h2.2v2c0,.7-.1,1.2-.3,1.6s-.5.7-.9.9c-.3.2-.7.3-1.1.4h0ZM199.5,131.2c-.6,0-1.3,0-1.9-.2-.6-.1-1.1-.4-1.6-.7s-.8-.7-1.1-1.1c-.3-.5-.4-1-.4-1.6v-.4h2.2v.3c0,.4.1.7.3,1s.5.5.9.6.9.2,1.4.2h1c.3,0,.5-.1.7-.2.2,0,.4-.2.5-.3s.2-.3.3-.4c0-.1.1-.3.1-.5,0-.3-.1-.6-.3-.8-.2-.2-.5-.4-.8-.5s-.7-.3-1.2-.4c-.4,0-.9-.2-1.3-.4-.5,0-.9-.3-1.3-.4l-1.2-.6c-.3-.2-.6-.6-.8-.9-.2-.4-.3-.8-.3-1.4s.1-1,.3-1.4.6-.7,1-1,.9-.5,1.5-.6,1.2-.2,1.9-.2,1.2,0,1.8.2c.6,0,1,.3,1.5.6.4.3.7.6,1,1.1.2.4.4.9.4,1.5v.2h-2.2v-.2c0-.3-.1-.6-.3-.8-.2-.2-.5-.4-.8-.5-.4,0-.8-.2-1.2-.2s-.9,0-1.3.2c-.4,0-.6.2-.8.4-.2.2-.3.4-.3.7s.1.5.3.7.5.4.8.5c.4,0,.7.3,1.2.4.4,0,.9.2,1.3.4.5,0,.9.3,1.3.4l1.2.6c.4.2.6.6.8.9.2.4.3.8.3,1.3,0,.9-.2,1.6-.6,2.1-.4.5-1,.9-1.8,1.2-.7.2-1.6.4-2.5.4v-.2ZM206.1,131v-11.7h2.2v11.7h-2.2ZM206.2,118.1v-2h2v2h-2Z"/>
  <path class="cls-3" d="M99.7,36.7l-23.2,33.6-4-1.9,23.2-33.5,4,1.9h0ZM74.1,53.2c-4.5,0-7.7-3.5-7.7-8.4s3.2-8.7,7.7-8.7,7.7,3.5,7.7,8.4-3.2,8.7-7.7,8.7ZM74.1,49.5c2.2,0,3.7-2,3.7-4.9s-1.5-4.8-3.6-4.8-3.7,2-3.7,4.9,1.5,4.8,3.6,4.8ZM97.8,69.7c-4.6,0-7.7-3.5-7.7-8.5s3.2-8.7,7.7-8.6c4.5,0,7.7,3.5,7.7,8.4s-3.2,8.7-7.7,8.7ZM97.8,65.9c2.2,0,3.7-2,3.7-4.9s-1.5-4.8-3.6-4.8-3.7,2-3.7,4.9,1.5,4.8,3.7,4.8h0ZM156.7,20.8c0,22.2-30,22.2-32.8,37.8h31.6v10.4h-44.6v-6.3c0-25.7,35.9-24.6,34.2-41.5s-12.4-11.2-12.4-11.2c-4.4.8-11,5.4-11.2,14h-12.1c1.1-15.2,11.4-23.7,25-23.7s22.5,8.3,22.5,20.4h-.2ZM188.2,70.4c-16,0-26.7-13.8-26.7-35.2S171.9.3,188.2.3s26.6,13.6,26.6,34.8-10.4,35.2-26.6,35.2h0ZM188.2,59.7c9.1,0,15-9.6,15-24.6s-5.9-24.3-15-24.3-15.1,9.5-15.1,24.3,5.9,24.6,15.1,24.6Z"/>
  <g class="cls-1">
    <g>
      <path class="cls-6" d="M305,153.7c0-.6-.5-1-1-1-40,.5-72.3,33.1-72.3,73.3s32.8,73.3,73.3,73.3,72.8-32.3,73.3-72.3c0-.6-.4-1-1-1h-71.3c-.6,0-1-.4-1-1v-71.3h0Z"/>
      <path class="cls-4" d="M309.4,213.1c-.4,1-1.9.8-1.9-.4v-66.8c0-.6.4-1,1-1,8.5.1,16.6,1.7,24.1,4.4.5.2.8.8.6,1.3l-23.8,62.5h0Z"/>
      <path class="cls-7" d="M308,222c-.3.7.2,1.4.9,1.4h68.8c.6,0,1-.5,1-1-.4-29.9-18.2-55.5-43.6-66.5-.5-.2-1.1,0-1.3.5l-25.9,65.6h0Z"/>
    </g>
  </g>
  <circle class="cls-5" cx="250.5" cy="40.5" r="2.5"/>
  <rect class="cls-5" x="249" y="40" width="73" height="1"/>
  <rect class="cls-5" x="322" y="40" width="1" height="107"/>
</svg>