<svg width="94" height="95" viewBox="0 0 94 95" fill="none" xmlns="http://www.w3.org/2000/svg">
<circle cx="46.9345" cy="47.8964" r="31.2895" fill="#003D23"/>
<path d="M44.2658 63.1268C44.4829 64.6202 44.9905 65.7605 45.3089 66.3611C45.4539 66.6348 45.3632 66.9734 45.1005 67.1388C44.8241 67.3122 44.4601 67.2292 44.2865 66.9537C43.0581 65.005 40.7186 61.206 42.313 53.8576C44.2345 45.0025 51.2552 44.7848 51.8024 36.5862C51.8024 36.5862 51.0864 40.468 44.0458 46.391C38.4725 51.079 39.8512 58.5796 39.8568 58.7112C39.7889 58.6348 35.4764 53.6957 37.3298 46.7787C39.3919 39.0831 50.158 38.3775 51.3584 29.1895C51.3584 29.1895 59.9039 37.4955 57.2839 47.2735C55.5545 53.7279 50.1457 56.2048 46.3121 58.6515C44.8104 59.6096 44.0104 61.3641 44.2658 63.1268Z" fill="white"/>
</svg>
