<svg width="563" height="352" viewBox="0 0 563 352" fill="none" xmlns="http://www.w3.org/2000/svg">
<mask id="mask0_135_1298" style="mask-type:luminance" maskUnits="userSpaceOnUse" x="0" y="0" width="563" height="352">
<path d="M563.001 0.747192H0.890625V351.387H563.001V0.747192Z" fill="white"/>
</mask>
<g mask="url(#mask0_135_1298)">
<mask id="mask1_135_1298" style="mask-type:luminance" maskUnits="userSpaceOnUse" x="-378" y="-159" width="941" height="665">
<path d="M563 -159H-378V506H563V-159Z" fill="white"/>
</mask>
<g mask="url(#mask1_135_1298)">
<mask id="mask2_135_1298" style="mask-type:luminance" maskUnits="userSpaceOnUse" x="-378" y="-159" width="941" height="665">
<path d="M563 -159H-378V506H563V-159Z" fill="white"/>
</mask>
<g mask="url(#mask2_135_1298)">
<mask id="mask3_135_1298" style="mask-type:luminance" maskUnits="userSpaceOnUse" x="-378" y="-159" width="941" height="665">
<path d="M563 -159H-378V506H563V-159Z" fill="white"/>
</mask>
<g mask="url(#mask3_135_1298)">
<g opacity="0.88">
<mask id="mask4_135_1298" style="mask-type:luminance" maskUnits="userSpaceOnUse" x="444" y="217" width="28" height="87">
<path d="M471.205 217.351H444.703V303.101H471.205V217.351Z" fill="white"/>
</mask>
<g mask="url(#mask4_135_1298)">
<path d="M470.715 302.611V217.848H445.193V302.611" stroke="#1C1C1B" stroke-width="0.25" stroke-miterlimit="10"/>
</g>
</g>
<g opacity="0.88">
<mask id="mask5_135_1298" style="mask-type:luminance" maskUnits="userSpaceOnUse" x="98" y="86" width="419" height="170">
<path d="M516.731 86.4502H98.7402V255.115H516.731V86.4502Z" fill="white"/>
</mask>
<g mask="url(#mask5_135_1298)">
<mask id="mask6_135_1298" style="mask-type:luminance" maskUnits="userSpaceOnUse" x="122" y="113" width="376" height="136">
<path d="M497.54 113.836H122.246V248.733H497.54V113.836Z" fill="white"/>
</mask>
<g mask="url(#mask6_135_1298)">
<path d="M102.746 128.93H514.137" stroke="#1C1C1B" stroke-width="0.25" stroke-miterlimit="10"/>
<path d="M512.951 144.096H101.545" stroke="#1C1C1B" stroke-width="0.25" stroke-miterlimit="10"/>
<path d="M512.951 230.968H101.766" stroke="#1C1C1B" stroke-width="0.25" stroke-miterlimit="10"/>
<path d="M512.92 221.11H101.648" stroke="#1C1C1B" stroke-width="0.25" stroke-miterlimit="10"/>
<path d="M512.612 160.068H101.205" stroke="#1C1C1B" stroke-width="0.25" stroke-miterlimit="10"/>
<path d="M513.078 193.267H101.672" stroke="#1C1C1B" stroke-width="0.25" stroke-miterlimit="10"/>
<path d="M137.326 91.9952V252.406" stroke="#1C1C1B" stroke-width="0.25" stroke-miterlimit="10"/>
<path d="M239.508 93.417V252.422" stroke="#1C1C1B" stroke-width="0.25" stroke-miterlimit="10"/>
<path d="M248.621 93.2906V252.295" stroke="#1C1C1B" stroke-width="0.25" stroke-miterlimit="10"/>
<path d="M150.178 93.417V252.422" stroke="#1C1C1B" stroke-width="0.25" stroke-miterlimit="10"/>
<path d="M168.729 93.417V252.422" stroke="#1C1C1B" stroke-width="0.25" stroke-miterlimit="10"/>
<path d="M173.186 93.417V252.422" stroke="#1C1C1B" stroke-width="0.25" stroke-miterlimit="10"/>
<path d="M186.18 92.011V252.406" stroke="#1C1C1B" stroke-width="0.25" stroke-miterlimit="10"/>
<path d="M190.59 92.011V252.406" stroke="#1C1C1B" stroke-width="0.25" stroke-miterlimit="10"/>
<path d="M226.996 92.3428V252.414" stroke="#1C1C1B" stroke-width="0.25" stroke-miterlimit="10"/>
<path d="M208.105 92.0426V252.406" stroke="#1C1C1B" stroke-width="0.25" stroke-miterlimit="10"/>
<path d="M203.641 93.417V252.422" stroke="#1C1C1B" stroke-width="0.25" stroke-miterlimit="10"/>
<path d="M267.164 92.564V252.414" stroke="#1C1C1B" stroke-width="0.25" stroke-miterlimit="10"/>
<path d="M287.887 91.5529V252.406" stroke="#1C1C1B" stroke-width="0.25" stroke-miterlimit="10"/>
<path d="M327.738 90.1389V252.398" stroke="#1C1C1B" stroke-width="0.25" stroke-miterlimit="10"/>
<path d="M374.562 91.5529V252.406" stroke="#1C1C1B" stroke-width="0.25" stroke-miterlimit="10"/>
<path d="M481.904 91.7819V252.643" stroke="#1C1C1B" stroke-width="0.25" stroke-miterlimit="10"/>
<path d="M434.324 101.616V252.406" stroke="#1C1C1B" stroke-width="0.25" stroke-miterlimit="10"/>
</g>
</g>
</g>
<g opacity="0.88">
<mask id="mask7_135_1298" style="mask-type:luminance" maskUnits="userSpaceOnUse" x="82" y="77" width="57" height="12">
<path d="M138.165 77.8405H82.5605V88.812H138.165V77.8405Z" fill="white"/>
</mask>
<g mask="url(#mask7_135_1298)">
<path d="M94.7582 83.0636C94.6764 82.8132 94.5686 82.5889 94.4347 82.3906C94.3033 82.1898 94.146 82.0188 93.9625 81.8775C93.7816 81.7362 93.5759 81.6284 93.3453 81.5541C93.1148 81.4797 92.862 81.4425 92.5869 81.4425C92.1357 81.4425 91.7255 81.559 91.3562 81.792C90.9869 82.025 90.6931 82.3683 90.475 82.8219C90.2569 83.2755 90.1478 83.832 90.1478 84.4913C90.1478 85.1506 90.2581 85.7071 90.4787 86.1607C90.6993 86.6143 90.998 86.9576 91.3748 87.1906C91.7515 87.4236 92.1754 87.5401 92.6463 87.5401C93.0826 87.5401 93.4668 87.4472 93.7989 87.2613C94.1336 87.0729 94.3938 86.8076 94.5797 86.4656C94.7681 86.1211 94.8623 85.7158 94.8623 85.2498L95.1449 85.3093H92.8546V84.4913H95.7546V85.3093C95.7546 85.9364 95.6208 86.4817 95.3531 86.9452C95.0879 87.4087 94.721 87.7681 94.2525 88.0234C93.7865 88.2763 93.2511 88.4027 92.6463 88.4027C91.9721 88.4027 91.3797 88.2441 90.8691 87.9268C90.361 87.6095 89.9644 87.1584 89.6793 86.5734C89.3968 85.9884 89.2555 85.2944 89.2555 84.4913C89.2555 83.889 89.336 83.3474 89.4972 82.8665C89.6608 82.3832 89.8913 81.9717 90.1887 81.6321C90.4862 81.2926 90.8381 81.0323 91.2446 80.8514C91.6511 80.6704 92.0986 80.5799 92.5869 80.5799C92.9884 80.5799 93.3627 80.6407 93.7097 80.7621C94.0592 80.8811 94.3703 81.0509 94.6429 81.2715C94.9181 81.4896 95.1473 81.7511 95.3308 82.056C95.5142 82.3584 95.6406 82.6943 95.71 83.0636H94.7582ZM97.411 88.2986H96.4443L99.2403 80.684H100.192L102.988 88.2986H102.021L99.7459 81.8887H99.6865L97.411 88.2986ZM97.7679 85.3242H101.664V86.1421H97.7679V85.3242ZM98.571 79.9256L97.8869 79.8958C97.8869 79.5166 97.9947 79.2067 98.2104 78.9663C98.4285 78.7234 98.6975 78.6019 99.0172 78.6019C99.1585 78.6019 99.2837 78.6267 99.3927 78.6763C99.5018 78.7234 99.6059 78.7779 99.705 78.8399C99.8042 78.9019 99.9058 78.9576 100.01 79.0072C100.117 79.0543 100.237 79.0778 100.371 79.0778C100.512 79.0778 100.631 79.0233 100.728 78.9143C100.827 78.8027 100.876 78.6689 100.876 78.5127L101.545 78.5722C101.545 78.9589 101.436 79.2662 101.218 79.4943C101.003 79.7223 100.735 79.8363 100.415 79.8363C100.244 79.8363 100.103 79.8128 99.9913 79.7657C99.8798 79.7161 99.7806 79.6603 99.6939 79.5984C99.6071 79.5364 99.5154 79.4819 99.4188 79.4348C99.3221 79.3852 99.2031 79.3604 99.0618 79.3604C98.9205 79.3604 98.8028 79.4162 98.7086 79.5277C98.6169 79.6368 98.571 79.7694 98.571 79.9256ZM104.68 88.2986L109.915 80.684H110.762L105.527 88.2986H104.68ZM104.643 84.7293V81.4946H104.605L103.609 82.1564V81.3682L104.643 80.684H105.416V84.7293H104.643ZM108.71 87.5698V86.9601L110.658 84.2534H111.194V85.1011H110.867L109.513 86.9303V86.9452H112.19V87.5698H108.71ZM110.881 88.2986V87.3765L110.896 87.1088V84.2534H111.625V88.2986H110.881ZM117.978 82.5877L115.866 88.2986H114.974L112.862 82.5877H113.814L115.391 87.1386H115.45L117.026 82.5877H117.978ZM121.326 88.4176C120.776 88.4176 120.301 88.2961 119.902 88.0532C119.506 87.8078 119.2 87.4657 118.984 87.027C118.771 86.5858 118.664 86.0727 118.664 85.4877C118.664 84.9028 118.771 84.3872 118.984 83.941C119.2 83.4924 119.5 83.1429 119.884 82.8926C120.27 82.6397 120.722 82.5133 121.237 82.5133C121.535 82.5133 121.828 82.5629 122.118 82.662C122.408 82.7612 122.672 82.9223 122.91 83.1454C123.148 83.366 123.338 83.6585 123.479 84.0228C123.62 84.3872 123.691 84.8358 123.691 85.3688V85.7406H119.289V84.9821H122.799C122.799 84.6599 122.734 84.3723 122.605 84.1195C122.479 83.8667 122.298 83.6671 122.063 83.5209C121.83 83.3747 121.554 83.3015 121.237 83.3015C120.888 83.3015 120.585 83.3883 120.33 83.5618C120.077 83.7328 119.883 83.9559 119.746 84.231C119.61 84.5062 119.542 84.8011 119.542 85.1159V85.6216C119.542 86.0529 119.616 86.4185 119.765 86.7184C119.916 87.0159 120.125 87.2427 120.393 87.3988C120.661 87.5525 120.972 87.6293 121.326 87.6293C121.557 87.6293 121.765 87.5971 121.951 87.5327C122.139 87.4657 122.302 87.3666 122.438 87.2352C122.574 87.1014 122.68 86.9353 122.754 86.737L123.602 86.975C123.513 87.2625 123.363 87.5153 123.152 87.7334C122.941 87.9491 122.681 88.1176 122.371 88.2391C122.061 88.3581 121.713 88.4176 121.326 88.4176ZM125.903 84.8631V88.2986H125.026V82.5877H125.874V83.48H125.948C126.082 83.19 126.285 82.957 126.558 82.781C126.83 82.6025 127.182 82.5133 127.614 82.5133C128 82.5133 128.339 82.5926 128.629 82.7513C128.919 82.9074 129.144 83.1454 129.305 83.4651C129.466 83.7824 129.547 84.184 129.547 84.6698V88.2986H128.67V84.7293C128.67 84.2806 128.553 83.9311 128.32 83.6808C128.087 83.428 127.767 83.3015 127.361 83.3015C127.081 83.3015 126.83 83.3623 126.61 83.4837C126.392 83.6052 126.219 83.7824 126.093 84.0154C125.966 84.2484 125.903 84.531 125.903 84.8631ZM132.028 80.684V88.2986H131.15V80.684H132.028ZM133.635 88.2986V82.5877H134.512V88.2986H133.635ZM134.081 81.6359C133.91 81.6359 133.763 81.5776 133.639 81.4611C133.517 81.3446 133.456 81.2046 133.456 81.041C133.456 80.8774 133.517 80.7373 133.639 80.6208C133.763 80.5043 133.91 80.4461 134.081 80.4461C134.252 80.4461 134.398 80.5043 134.52 80.6208C134.644 80.7373 134.706 80.8774 134.706 81.041C134.706 81.2046 134.644 81.3446 134.52 81.4611C134.398 81.5776 134.252 81.6359 134.081 81.6359ZM89.8652 101.299H88.8986L91.6945 93.684H92.6463L95.4423 101.299H94.4756L92.2002 94.8887H92.1407L89.8652 101.299ZM90.2222 98.3242H94.1187V99.1421H90.2222V98.3242ZM97.3868 93.684V101.299H96.5094V93.684H97.3868ZM100.675 101.432C100.313 101.432 99.9842 101.364 99.6892 101.228C99.3943 101.089 99.16 100.89 98.9865 100.629C98.813 100.367 98.7263 100.049 98.7263 99.6775C98.7263 99.3503 98.7907 99.0851 98.9196 98.8819C99.0485 98.6761 99.2208 98.515 99.4364 98.3985C99.6521 98.282 99.89 98.1953 100.15 98.1383C100.413 98.0788 100.677 98.0317 100.942 97.997C101.289 97.9523 101.571 97.9189 101.786 97.8966C102.004 97.8718 102.163 97.8309 102.262 97.7739C102.364 97.7169 102.415 97.6177 102.415 97.4764V97.4467C102.415 97.0798 102.314 96.7948 102.113 96.5915C101.915 96.3883 101.614 96.2867 101.21 96.2867C100.791 96.2867 100.463 96.3784 100.225 96.5618C99.9867 96.7452 99.8194 96.941 99.7227 97.1493L98.8899 96.8518C99.0386 96.5048 99.2369 96.2346 99.4847 96.0413C99.7351 95.8455 100.008 95.7091 100.303 95.6323C100.6 95.553 100.893 95.5133 101.18 95.5133C101.364 95.5133 101.574 95.5356 101.812 95.5802C102.053 95.6224 102.284 95.7104 102.508 95.8442C102.733 95.9781 102.92 96.1801 103.069 96.4503C103.218 96.7204 103.292 97.0823 103.292 97.5359V101.299H102.415V100.525H102.37C102.31 100.649 102.211 100.782 102.073 100.923C101.934 101.064 101.749 101.185 101.519 101.284C101.288 101.383 101.007 101.432 100.675 101.432ZM100.808 100.644C101.155 100.644 101.448 100.576 101.686 100.44C101.926 100.303 102.107 100.127 102.229 99.9118C102.353 99.6961 102.415 99.4693 102.415 99.2314V98.4283C102.377 98.4729 102.296 98.5138 102.169 98.551C102.045 98.5857 101.901 98.6166 101.738 98.6439C101.577 98.6687 101.419 98.691 101.266 98.7108C101.114 98.7282 100.992 98.7431 100.898 98.7554C100.67 98.7852 100.456 98.8335 100.258 98.9004C100.062 98.9649 99.9036 99.0628 99.7822 99.1942C99.6632 99.3231 99.6037 99.4991 99.6037 99.7221C99.6037 100.027 99.7165 100.258 99.9421 100.414C100.17 100.567 100.459 100.644 100.808 100.644ZM105.771 97.8631V101.299H104.894V95.5877H105.741V96.48H105.816C105.949 96.19 106.153 95.957 106.425 95.781C106.698 95.6025 107.05 95.5133 107.481 95.5133C107.868 95.5133 108.206 95.5926 108.496 95.7513C108.786 95.9074 109.012 96.1454 109.173 96.4651C109.334 96.7824 109.415 97.184 109.415 97.6698V101.299H108.537V97.7293C108.537 97.2806 108.421 96.9311 108.188 96.6808C107.955 96.428 107.635 96.3015 107.228 96.3015C106.948 96.3015 106.698 96.3623 106.477 96.4837C106.259 96.6052 106.087 96.7824 105.961 97.0154C105.834 97.2484 105.771 97.531 105.771 97.8631Z" fill="#1C1C1B"/>
</g>
</g>
<g opacity="0.88">
<mask id="mask8_135_1298" style="mask-type:luminance" maskUnits="userSpaceOnUse" x="164" y="116" width="14" height="10">
<path d="M177.13 116.371H164.666V125.202H177.13V116.371Z" fill="white"/>
</mask>
<g mask="url(#mask8_135_1298)">
<path d="M171.548 124.85C171.257 124.85 170.993 124.795 170.756 124.686C170.519 124.574 170.33 124.414 170.191 124.204C170.051 123.993 169.981 123.738 169.981 123.439C169.981 123.176 170.033 122.962 170.137 122.799C170.24 122.633 170.379 122.504 170.552 122.41C170.726 122.316 170.917 122.247 171.127 122.201C171.338 122.153 171.55 122.115 171.763 122.087C172.042 122.051 172.269 122.024 172.442 122.007C172.618 121.987 172.745 121.954 172.825 121.908C172.907 121.862 172.947 121.782 172.947 121.669V121.645C172.947 121.35 172.867 121.12 172.705 120.957C172.546 120.794 172.304 120.712 171.979 120.712C171.642 120.712 171.378 120.786 171.186 120.933C170.995 121.081 170.86 121.238 170.783 121.406L170.113 121.166C170.233 120.887 170.392 120.67 170.591 120.514C170.793 120.357 171.012 120.247 171.249 120.186C171.488 120.122 171.724 120.09 171.955 120.09C172.102 120.09 172.272 120.108 172.463 120.144C172.656 120.178 172.843 120.248 173.022 120.356C173.204 120.464 173.354 120.626 173.474 120.843C173.593 121.061 173.653 121.352 173.653 121.716V124.742H172.947V124.12H172.912C172.864 124.22 172.784 124.327 172.672 124.44C172.561 124.554 172.412 124.651 172.227 124.73C172.041 124.81 171.815 124.85 171.548 124.85ZM171.656 124.216C171.935 124.216 172.17 124.161 172.361 124.052C172.555 123.942 172.7 123.801 172.798 123.627C172.898 123.454 172.947 123.271 172.947 123.08V122.434C172.918 122.47 172.852 122.503 172.75 122.533C172.65 122.561 172.535 122.586 172.403 122.608C172.274 122.627 172.147 122.645 172.024 122.661C171.902 122.675 171.803 122.687 171.728 122.697C171.544 122.721 171.373 122.76 171.213 122.814C171.056 122.866 170.928 122.944 170.831 123.05C170.735 123.154 170.687 123.295 170.687 123.475C170.687 123.72 170.778 123.905 170.959 124.031C171.142 124.154 171.375 124.216 171.656 124.216Z" fill="#1C1C1B"/>
</g>
</g>
<g opacity="0.88">
<mask id="mask9_135_1298" style="mask-type:luminance" maskUnits="userSpaceOnUse" x="182" y="116" width="13" height="10">
<path d="M194.488 116.371H182.023V125.202H194.488V116.371Z" fill="white"/>
</mask>
<g mask="url(#mask9_135_1298)">
<path d="M188.913 124.85C188.622 124.85 188.358 124.795 188.121 124.686C187.884 124.574 187.695 124.414 187.556 124.204C187.416 123.993 187.347 123.738 187.347 123.439C187.347 123.176 187.398 122.962 187.502 122.799C187.606 122.633 187.744 122.504 187.918 122.41C188.091 122.316 188.282 122.247 188.492 122.201C188.703 122.153 188.915 122.115 189.129 122.087C189.408 122.051 189.634 122.024 189.807 122.007C189.983 121.987 190.11 121.954 190.19 121.908C190.272 121.862 190.313 121.782 190.313 121.669V121.645C190.313 121.35 190.232 121.12 190.071 120.957C189.911 120.794 189.669 120.712 189.344 120.712C189.007 120.712 188.743 120.786 188.552 120.933C188.36 121.081 188.226 121.238 188.148 121.406L187.478 121.166C187.598 120.887 187.757 120.67 187.957 120.514C188.158 120.357 188.377 120.247 188.614 120.186C188.854 120.122 189.089 120.09 189.32 120.09C189.468 120.09 189.637 120.108 189.828 120.144C190.022 120.178 190.208 120.248 190.387 120.356C190.569 120.464 190.719 120.626 190.839 120.843C190.959 121.061 191.018 121.352 191.018 121.716V124.742H190.313V124.12H190.277C190.229 124.22 190.149 124.327 190.038 124.44C189.926 124.554 189.778 124.651 189.592 124.73C189.407 124.81 189.18 124.85 188.913 124.85ZM189.021 124.216C189.3 124.216 189.535 124.161 189.727 124.052C189.92 123.942 190.066 123.801 190.163 123.627C190.263 123.454 190.313 123.271 190.313 123.08V122.434C190.283 122.47 190.217 122.503 190.115 122.533C190.016 122.561 189.9 122.586 189.769 122.608C189.639 122.627 189.512 122.645 189.389 122.661C189.267 122.675 189.169 122.687 189.093 122.697C188.909 122.721 188.738 122.76 188.578 122.814C188.421 122.866 188.293 122.944 188.196 123.05C188.1 123.154 188.052 123.295 188.052 123.475C188.052 123.72 188.143 123.905 188.324 124.031C188.508 124.154 188.74 124.216 189.021 124.216Z" fill="#1C1C1B"/>
</g>
</g>
<g opacity="0.88">
<mask id="mask10_135_1298" style="mask-type:luminance" maskUnits="userSpaceOnUse" x="199" y="116" width="13" height="10">
<path d="M211.687 116.371H199.223V125.202H211.687V116.371Z" fill="white"/>
</mask>
<g mask="url(#mask10_135_1298)">
<path d="M206.105 124.85C205.814 124.85 205.55 124.795 205.312 124.686C205.075 124.574 204.887 124.414 204.747 124.204C204.608 123.993 204.538 123.738 204.538 123.439C204.538 123.176 204.59 122.962 204.693 122.799C204.797 122.633 204.936 122.504 205.109 122.41C205.283 122.316 205.474 122.247 205.683 122.201C205.894 122.153 206.107 122.115 206.32 122.087C206.599 122.051 206.825 122.024 206.999 122.007C207.174 121.987 207.302 121.954 207.382 121.908C207.463 121.862 207.504 121.782 207.504 121.669V121.645C207.504 121.35 207.423 121.12 207.262 120.957C207.102 120.794 206.86 120.712 206.535 120.712C206.198 120.712 205.934 120.786 205.743 120.933C205.552 121.081 205.417 121.238 205.339 121.406L204.67 121.166C204.789 120.887 204.949 120.67 205.148 120.514C205.349 120.357 205.569 120.247 205.806 120.186C206.045 120.122 206.28 120.09 206.511 120.09C206.659 120.09 206.828 120.108 207.02 120.144C207.213 120.178 207.399 120.248 207.579 120.356C207.76 120.464 207.911 120.626 208.03 120.843C208.15 121.061 208.21 121.352 208.21 121.716V124.742H207.504V124.12H207.468C207.42 124.22 207.341 124.327 207.229 124.44C207.117 124.554 206.969 124.651 206.784 124.73C206.598 124.81 206.372 124.85 206.105 124.85ZM206.212 124.216C206.491 124.216 206.727 124.161 206.918 124.052C207.111 123.942 207.257 123.801 207.355 123.627C207.454 123.454 207.504 123.271 207.504 123.08V122.434C207.474 122.47 207.408 122.503 207.307 122.533C207.207 122.561 207.091 122.586 206.96 122.608C206.83 122.627 206.704 122.645 206.58 122.661C206.459 122.675 206.36 122.687 206.284 122.697C206.101 122.721 205.929 122.76 205.77 122.814C205.612 122.866 205.485 122.944 205.387 123.05C205.291 123.154 205.244 123.295 205.244 123.475C205.244 123.72 205.334 123.905 205.516 124.031C205.699 124.154 205.931 124.216 206.212 124.216Z" fill="#1C1C1B"/>
</g>
</g>
<g opacity="0.88">
<mask id="mask11_135_1298" style="mask-type:luminance" maskUnits="userSpaceOnUse" x="-18" y="150" width="50" height="36">
<path d="M31.9048 150.621H-17.7871V185.818H31.9048V150.621Z" fill="white"/>
</mask>
<g mask="url(#mask11_135_1298)">
<path d="M6.3698 166.789L10.7581 174.278L15.1464 166.789H18.3899L12.4753 175.948L18.3899 185.106H15.1464L10.7581 177.999L6.3698 185.106H3.12628L8.94554 175.948L3.12628 166.789H6.3698Z" fill="#1C1C1B"/>
</g>
</g>
<g opacity="0.88">
<mask id="mask12_135_1298" style="mask-type:luminance" maskUnits="userSpaceOnUse" x="162" y="36" width="51" height="36">
<path d="M212.043 36.1816H162.352V71.3791H212.043V36.1816Z" fill="white"/>
</mask>
<g mask="url(#mask12_135_1298)">
<path d="M186.508 52.3503L190.897 59.839L195.285 52.3503H198.529L192.614 61.5084L198.529 70.6666H195.285L190.897 63.5595L186.508 70.6666H183.265L189.084 61.5084L183.265 52.3503H186.508Z" fill="#1C1C1B"/>
</g>
</g>
<g opacity="0.88">
<mask id="mask13_135_1298" style="mask-type:luminance" maskUnits="userSpaceOnUse" x="39" y="137" width="19" height="7">
<path d="M57.941 137.327H39.7383V143.994H57.941V137.327Z" fill="white"/>
</mask>
<g mask="url(#mask13_135_1298)">
<path d="M45.5346 138.986V143.611H44.9745V139.573H44.9474L43.8182 140.323V139.754L44.9745 138.986H45.5346ZM48.5091 138.769L47.0185 144.307H46.5306L48.0213 138.769H48.5091ZM49.0235 142.663V142.202L51.0562 138.986H51.3904V139.7H51.1646L49.6288 142.13V142.166H52.3661V142.663H49.0235ZM51.2007 143.611V142.523V142.308V138.986H51.7337V143.611H51.2007ZM44.2608 146.986L45.4533 148.91H45.4895L46.682 146.986H47.3414L45.887 149.299L47.3414 151.611H46.682L45.4895 149.723H45.4533L44.2608 151.611H43.6013L45.092 149.299L43.6013 146.986H44.2608Z" fill="#1C1C1B"/>
</g>
</g>
<g opacity="0.88">
<mask id="mask14_135_1298" style="mask-type:luminance" maskUnits="userSpaceOnUse" x="121" y="245" width="19" height="7">
<path d="M139.351 245.194H121.805V251.869H139.351V245.194Z" fill="white"/>
</mask>
<g mask="url(#mask14_135_1298)">
<path d="M127.43 246.92V251.467H126.88V247.497H126.853L125.743 248.234V247.675L126.88 246.92H127.43ZM130.354 246.707L128.889 252.15H128.409L129.875 246.707H130.354ZM132.422 251.529C132.118 251.529 131.848 251.475 131.614 251.367C131.382 251.257 131.201 251.107 131.071 250.916C130.94 250.724 130.876 250.505 130.877 250.259C130.876 250.067 130.914 249.889 130.991 249.726C131.068 249.562 131.173 249.425 131.306 249.316C131.44 249.205 131.591 249.134 131.756 249.105V249.078C131.539 249.022 131.366 248.9 131.237 248.712C131.108 248.522 131.045 248.307 131.046 248.066C131.045 247.835 131.103 247.628 131.221 247.446C131.34 247.264 131.503 247.121 131.71 247.016C131.919 246.911 132.156 246.858 132.422 246.858C132.686 246.858 132.921 246.911 133.128 247.016C133.336 247.121 133.498 247.264 133.617 247.446C133.737 247.628 133.797 247.835 133.799 248.066C133.797 248.307 133.731 248.522 133.601 248.712C133.472 248.9 133.302 249.022 133.088 249.078V249.105C133.253 249.134 133.401 249.205 133.532 249.316C133.664 249.425 133.769 249.562 133.848 249.726C133.926 249.889 133.966 250.067 133.968 250.259C133.966 250.505 133.899 250.724 133.768 250.916C133.638 251.107 133.456 251.257 133.224 251.367C132.993 251.475 132.726 251.529 132.422 251.529ZM132.422 251.04C132.628 251.04 132.806 251.007 132.955 250.941C133.105 250.874 133.22 250.78 133.302 250.659C133.383 250.537 133.424 250.395 133.426 250.232C133.424 250.061 133.38 249.909 133.293 249.777C133.205 249.646 133.086 249.542 132.935 249.466C132.786 249.391 132.615 249.353 132.422 249.353C132.229 249.353 132.055 249.391 131.903 249.466C131.752 249.542 131.633 249.646 131.546 249.777C131.46 249.909 131.418 250.061 131.419 250.232C131.418 250.395 131.457 250.537 131.537 250.659C131.618 250.78 131.734 250.874 131.885 250.941C132.036 251.007 132.215 251.04 132.422 251.04ZM132.422 248.883C132.585 248.883 132.73 248.85 132.855 248.785C132.983 248.72 133.083 248.629 133.155 248.512C133.228 248.395 133.265 248.258 133.266 248.101C133.265 247.947 133.228 247.813 133.157 247.699C133.086 247.584 132.988 247.495 132.862 247.433C132.736 247.369 132.59 247.338 132.422 247.338C132.252 247.338 132.104 247.369 131.976 247.433C131.849 247.495 131.751 247.584 131.681 247.699C131.611 247.813 131.577 247.947 131.579 248.101C131.577 248.258 131.612 248.395 131.683 248.512C131.756 248.629 131.856 248.72 131.983 248.785C132.11 248.85 132.257 248.883 132.422 248.883ZM126.178 254.92L127.35 256.812H127.386L128.558 254.92H129.206L127.777 257.193L129.206 259.467H128.558L127.386 257.611H127.35L126.178 259.467H125.53L126.995 257.193L125.53 254.92H126.178Z" fill="#1C1C1B"/>
</g>
</g>
<g opacity="0.88">
<mask id="mask15_135_1298" style="mask-type:luminance" maskUnits="userSpaceOnUse" x="107" y="235" width="18" height="8">
<path d="M124.625 235.447H107.078V242.122H124.625V235.447Z" fill="white"/>
</mask>
<g mask="url(#mask15_135_1298)">
<path d="M112.704 237.181V241.727H112.153V237.758H112.127L111.017 238.495V237.936L112.153 237.181H112.704ZM115.627 236.968L114.162 242.411H113.683L115.148 236.968H115.627ZM117.696 241.789C117.391 241.789 117.122 241.735 116.888 241.627C116.655 241.518 116.474 241.368 116.344 241.177C116.214 240.984 116.149 240.765 116.151 240.52C116.149 240.327 116.187 240.15 116.264 239.987C116.341 239.823 116.446 239.686 116.579 239.576C116.714 239.465 116.864 239.395 117.03 239.365V239.339C116.812 239.282 116.639 239.16 116.51 238.972C116.382 238.783 116.318 238.568 116.32 238.326C116.318 238.095 116.376 237.889 116.495 237.707C116.613 237.525 116.776 237.381 116.983 237.276C117.192 237.171 117.429 237.119 117.696 237.119C117.959 237.119 118.195 237.171 118.402 237.276C118.609 237.381 118.772 237.525 118.89 237.707C119.01 237.889 119.071 238.095 119.072 238.326C119.071 238.568 119.005 238.783 118.875 238.972C118.746 239.16 118.575 239.282 118.362 239.339V239.365C118.526 239.395 118.674 239.465 118.806 239.576C118.938 239.686 119.043 239.823 119.121 239.987C119.2 240.15 119.24 240.327 119.241 240.52C119.24 240.765 119.173 240.984 119.041 241.177C118.911 241.368 118.73 241.518 118.497 241.627C118.266 241.735 117.999 241.789 117.696 241.789ZM117.696 241.301C117.902 241.301 118.079 241.268 118.229 241.201C118.378 241.135 118.494 241.041 118.575 240.919C118.656 240.798 118.698 240.656 118.699 240.493C118.698 240.321 118.653 240.17 118.566 240.038C118.479 239.906 118.36 239.803 118.209 239.727C118.059 239.652 117.888 239.614 117.696 239.614C117.502 239.614 117.329 239.652 117.176 239.727C117.025 239.803 116.906 239.906 116.819 240.038C116.733 240.17 116.691 240.321 116.692 240.493C116.691 240.656 116.73 240.798 116.81 240.919C116.892 241.041 117.008 241.135 117.159 241.201C117.31 241.268 117.489 241.301 117.696 241.301ZM117.696 239.143C117.859 239.143 118.003 239.111 118.129 239.046C118.256 238.98 118.356 238.889 118.428 238.773C118.501 238.656 118.538 238.519 118.539 238.362C118.538 238.208 118.502 238.074 118.431 237.96C118.36 237.845 118.261 237.756 118.135 237.694C118.01 237.63 117.863 237.598 117.696 237.598C117.526 237.598 117.377 237.63 117.25 237.694C117.122 237.756 117.024 237.845 116.954 237.96C116.885 238.074 116.851 238.208 116.852 238.362C116.851 238.519 116.886 238.656 116.957 238.773C117.029 238.889 117.129 238.98 117.256 239.046C117.384 239.111 117.53 239.143 117.696 239.143ZM111.452 245.181L112.624 247.072H112.659L113.832 245.181H114.48L113.05 247.454L114.48 249.727H113.832L112.659 247.871H112.624L111.452 249.727H110.803L112.269 247.454L110.803 245.181H111.452Z" fill="#1C1C1B"/>
</g>
</g>
<g opacity="0.88">
<mask id="mask16_135_1298" style="mask-type:luminance" maskUnits="userSpaceOnUse" x="444" y="291" width="27" height="10">
<path d="M470.792 291.118H444.164V300.874H470.792V291.118Z" fill="white"/>
</mask>
<g mask="url(#mask16_135_1298)">
<path d="M452.644 293.758V300.529H451.824V294.618H451.784L450.131 295.715V294.882L451.824 293.758H452.644ZM456.998 293.441L454.816 301.547H454.102L456.284 293.441H456.998ZM457.751 299.141V298.466L460.726 293.758H461.216V294.803H460.885L458.637 298.36V298.413H462.644V299.141H457.751ZM460.938 300.529V298.936V298.622V293.758H461.718V300.529H460.938ZM450.779 304.758L452.525 307.575H452.578L454.323 304.758H455.289L453.16 308.144L455.289 311.529H454.323L452.578 308.765H452.525L450.779 311.529H449.814L451.996 308.144L449.814 304.758H450.779Z" fill="#1C1C1B"/>
</g>
</g>
<g opacity="0.88">
<mask id="mask17_135_1298" style="mask-type:luminance" maskUnits="userSpaceOnUse" x="37" y="201" width="19" height="7">
<path d="M55.6716 201.261H37.4531V207.935H55.6716V201.261Z" fill="white"/>
</mask>
<g mask="url(#mask17_135_1298)">
<path d="M43.2606 202.912V207.545H42.6996V203.5H42.6725L41.5414 204.251V203.681L42.6996 202.912H43.2606ZM46.2397 202.695L44.7468 208.242H44.2582L45.7511 202.695H46.2397ZM46.8635 207.545V207.138L48.3927 205.464C48.5721 205.268 48.7199 205.097 48.836 204.953C48.9522 204.806 49.0381 204.669 49.0939 204.541C49.1512 204.411 49.1799 204.276 49.1799 204.134C49.1799 203.971 49.1407 203.83 49.0623 203.711C48.9853 203.592 48.8798 203.5 48.7456 203.435C48.6113 203.37 48.4605 203.338 48.2931 203.338C48.1152 203.338 47.9599 203.375 47.8272 203.448C47.696 203.521 47.5942 203.623 47.5218 203.754C47.4509 203.885 47.4155 204.039 47.4155 204.215H46.8816C46.8816 203.944 46.9442 203.706 47.0694 203.5C47.1945 203.295 47.3649 203.136 47.5806 203.021C47.7978 202.906 48.0413 202.849 48.3112 202.849C48.5827 202.849 48.8232 202.906 49.0328 203.021C49.2425 203.136 49.4068 203.29 49.526 203.485C49.6451 203.679 49.7047 203.896 49.7047 204.134C49.7047 204.304 49.6738 204.471 49.6119 204.634C49.5516 204.795 49.446 204.975 49.2952 205.174C49.1459 205.372 48.9386 205.613 48.6732 205.898L47.6326 207.011V207.047H49.7861V207.545H46.8635ZM41.9848 210.912L43.1792 212.84H43.2154L44.4097 210.912H45.0703L43.6135 213.229L45.0703 215.545H44.4097L43.2154 213.654H43.1792L41.9848 215.545H41.3243L42.8172 213.229L41.3243 210.912H41.9848Z" fill="#1C1C1B"/>
</g>
</g>
<g opacity="0.88">
<mask id="mask18_135_1298" style="mask-type:luminance" maskUnits="userSpaceOnUse" x="58" y="96" width="19" height="7">
<path d="M76.404 96.15H58.1855V102.825H76.404V96.15Z" fill="white"/>
</mask>
<g mask="url(#mask18_135_1298)">
<path d="M63.993 97.7938V102.427H63.432V98.3819H63.4049L62.2738 99.1329V98.5629L63.432 97.7938H63.993ZM66.9722 97.5766L65.4792 103.123H64.9906L66.4836 97.5766H66.9722ZM67.5959 102.427V102.019L69.1251 100.345C69.3046 100.149 69.4523 99.9789 69.5685 99.8342C69.6846 99.6879 69.7705 99.5507 69.8263 99.4225C69.8836 99.2928 69.9123 99.1571 69.9123 99.0153C69.9123 98.8524 69.8731 98.7114 69.7947 98.5923C69.7178 98.4732 69.6122 98.3812 69.478 98.3163C69.3438 98.2515 69.193 98.2191 69.0256 98.2191C68.8476 98.2191 68.6923 98.256 68.5596 98.3299C68.4284 98.4023 68.3266 98.5041 68.2542 98.6353C68.1833 98.7665 68.1479 98.9203 68.1479 99.0967H67.614C67.614 98.8253 67.6766 98.587 67.8018 98.3819C67.927 98.1768 68.0974 98.017 68.313 97.9024C68.5302 97.7878 68.7737 97.7304 69.0437 97.7304C69.3151 97.7304 69.5556 97.7878 69.7653 97.9024C69.9749 98.017 70.1393 98.1716 70.2584 98.3661C70.3775 98.5606 70.4371 98.777 70.4371 99.0153C70.4371 99.1857 70.4062 99.3524 70.3444 99.5152C70.284 99.6766 70.1785 99.8568 70.0277 100.056C69.8784 100.253 69.671 100.495 69.4056 100.78L68.365 101.893V101.929H70.5185V102.427H67.5959ZM62.7172 105.794L63.9116 107.721H63.9478L65.1422 105.794H65.8027L64.3459 108.11L65.8027 110.427H65.1422L63.9478 108.535H63.9116L62.7172 110.427H62.0567L63.5497 108.11L62.0567 105.794H62.7172Z" fill="#1C1C1B"/>
</g>
</g>
<g opacity="0.88">
<mask id="mask19_135_1298" style="mask-type:luminance" maskUnits="userSpaceOnUse" x="98" y="58" width="20" height="8">
<path d="M117.086 58.8831H98.8672V65.5576H117.086V58.8831Z" fill="white"/>
</mask>
<g mask="url(#mask19_135_1298)">
<path d="M104.675 60.5268V65.1595H104.114V61.115H104.087L102.955 61.866V61.2959L104.114 60.5268H104.675ZM107.654 60.3097L106.161 65.8563H105.672L107.165 60.3097H107.654ZM108.278 65.1595V64.7524L109.807 63.0784C109.986 62.8824 110.134 62.712 110.25 62.5672C110.366 62.4209 110.452 62.2837 110.508 62.1555C110.565 62.0258 110.594 61.8901 110.594 61.7483C110.594 61.5855 110.555 61.4445 110.476 61.3253C110.399 61.2062 110.294 61.1142 110.16 61.0494C110.025 60.9845 109.875 60.9521 109.707 60.9521C109.529 60.9521 109.374 60.989 109.241 61.0629C109.11 61.1353 109.008 61.2371 108.936 61.3683C108.865 61.4995 108.83 61.6533 108.83 61.8298H108.296C108.296 61.5583 108.358 61.3201 108.483 61.115C108.609 60.9099 108.779 60.75 108.995 60.6354C109.212 60.5208 109.455 60.4635 109.725 60.4635C109.997 60.4635 110.237 60.5208 110.447 60.6354C110.657 60.75 110.821 60.9046 110.94 61.0991C111.059 61.2937 111.119 61.5101 111.119 61.7483C111.119 61.9187 111.088 62.0854 111.026 62.2483C110.966 62.4096 110.86 62.5898 110.709 62.7889C110.56 62.9864 110.353 63.2277 110.087 63.5128L109.047 64.6257V64.6619H111.2V65.1595H108.278ZM103.399 68.5268L104.593 70.4541H104.629L105.824 68.5268H106.484L105.028 70.8432L106.484 73.1595H105.824L104.629 71.2685H104.593L103.399 73.1595H102.738L104.231 70.8432L102.738 68.5268H103.399Z" fill="#1C1C1B"/>
</g>
</g>
<g opacity="0.88">
<mask id="mask20_135_1298" style="mask-type:luminance" maskUnits="userSpaceOnUse" x="4" y="128" width="113" height="2">
<path d="M116.278 128.844H4.41406V129.041H116.278V128.844Z" fill="white"/>
</mask>
<g mask="url(#mask20_135_1298)">
<path d="M116.182 128.938H114.996" stroke="#1C1C1B" stroke-width="0.25" stroke-miterlimit="10"/>
<path d="M112.665 128.938H6.86328" stroke="#1C1C1B" stroke-width="0.25" stroke-miterlimit="10"/>
<path d="M5.70121 128.938H4.51562" stroke="#1C1C1B" stroke-width="0.25" stroke-miterlimit="10"/>
</g>
</g>
<g opacity="0.88">
<mask id="mask21_135_1298" style="mask-type:luminance" maskUnits="userSpaceOnUse" x="34" y="154" width="229" height="1">
<path d="M262.264 154.302H34.5762V154.499H262.264V154.302Z" fill="white"/>
</mask>
<g mask="url(#mask21_135_1298)">
<path d="M262.16 154.404H260.975" stroke="#1C1C1B" stroke-width="0.25" stroke-miterlimit="10"/>
<path d="M258.603 154.404H37.041" stroke="#1C1C1B" stroke-width="0.25" stroke-miterlimit="10"/>
<path d="M35.8555 154.404H34.6699" stroke="#1C1C1B" stroke-width="0.25" stroke-miterlimit="10"/>
</g>
</g>
<g opacity="0.88">
<mask id="mask22_135_1298" style="mask-type:luminance" maskUnits="userSpaceOnUse" x="35" y="230" width="106" height="2">
<path d="M140.591 230.818H35.7461V231.016H140.591V230.818Z" fill="white"/>
</mask>
<g mask="url(#mask22_135_1298)">
<path d="M140.496 230.913H139.311" stroke="#1C1C1B" stroke-width="0.25" stroke-miterlimit="10"/>
<path d="M136.931 230.913H38.2188" stroke="#1C1C1B" stroke-width="0.25" stroke-miterlimit="10"/>
<path d="M37.0332 230.913H35.8477" stroke="#1C1C1B" stroke-width="0.25" stroke-miterlimit="10"/>
</g>
</g>
<g opacity="0.88">
<mask id="mask23_135_1298" style="mask-type:luminance" maskUnits="userSpaceOnUse" x="239" y="25" width="1" height="86">
<path d="M239.318 25.4866H239.121V110.668H239.318V25.4866Z" fill="white"/>
</mask>
<g mask="url(#mask23_135_1298)">
<path d="M239.215 25.5813V26.7661" stroke="#1C1C1B" stroke-width="0.25" stroke-miterlimit="10"/>
<path d="M239.215 29.1279V108.204" stroke="#1C1C1B" stroke-width="0.25" stroke-miterlimit="10"/>
<path d="M239.215 109.381V110.565" stroke="#1C1C1B" stroke-width="0.25" stroke-miterlimit="10"/>
</g>
</g>
<g opacity="0.88">
<mask id="mask24_135_1298" style="mask-type:luminance" maskUnits="userSpaceOnUse" x="137" y="25" width="1" height="86">
<path d="M137.437 25.4866H137.24V110.668H137.437V25.4866Z" fill="white"/>
</mask>
<g mask="url(#mask24_135_1298)">
<path d="M137.342 25.5813V26.7661" stroke="#1C1C1B" stroke-width="0.25" stroke-miterlimit="10"/>
<path d="M137.342 29.1279V108.204" stroke="#1C1C1B" stroke-width="0.25" stroke-miterlimit="10"/>
<path d="M137.342 109.381V110.565" stroke="#1C1C1B" stroke-width="0.25" stroke-miterlimit="10"/>
</g>
</g>
<g opacity="0.88">
<mask id="mask25_135_1298" style="mask-type:luminance" maskUnits="userSpaceOnUse" x="59" y="128" width="27" height="27">
<path d="M85.3277 128.757H59.5293V154.539H85.3277V128.757Z" fill="white"/>
</mask>
<g mask="url(#mask25_135_1298)">
<path d="M85.1936 128.899H59.6719V154.404H85.1936V128.899Z" stroke="#1C1C1B" stroke-width="0.25" stroke-miterlimit="10"/>
</g>
</g>
<g opacity="0.88">
<mask id="mask26_135_1298" style="mask-type:luminance" maskUnits="userSpaceOnUse" x="59" y="154" width="27" height="27">
<path d="M85.3277 154.262H59.5293V180.044H85.3277V154.262Z" fill="white"/>
</mask>
<g mask="url(#mask26_135_1298)">
<path d="M85.1936 154.404H59.6719V179.91H85.1936V154.404Z" stroke="#1C1C1B" stroke-width="0.25" stroke-miterlimit="10"/>
</g>
</g>
<g opacity="0.88">
<mask id="mask27_135_1298" style="mask-type:luminance" maskUnits="userSpaceOnUse" x="59" y="179" width="27" height="27">
<path d="M85.3277 179.768H59.5293V205.55H85.3277V179.768Z" fill="white"/>
</mask>
<g mask="url(#mask27_135_1298)">
<path d="M85.1936 179.902H59.6719V205.408H85.1936V179.902Z" stroke="#1C1C1B" stroke-width="0.25" stroke-miterlimit="10"/>
</g>
</g>
<g opacity="0.88">
<mask id="mask28_135_1298" style="mask-type:luminance" maskUnits="userSpaceOnUse" x="59" y="205" width="27" height="27">
<path d="M85.3277 205.273H59.5293V231.055H85.3277V205.273Z" fill="white"/>
</mask>
<g mask="url(#mask28_135_1298)">
<path d="M85.1936 205.408H59.6719V230.913H85.1936V205.408Z" stroke="#1C1C1B" stroke-width="0.25" stroke-miterlimit="10"/>
</g>
</g>
<g opacity="0.88">
<mask id="mask29_135_1298" style="mask-type:luminance" maskUnits="userSpaceOnUse" x="4" y="179" width="372" height="53">
<path d="M375.053 179.389H4.01953V231.387H375.053V179.389Z" fill="white"/>
</mask>
<g mask="url(#mask29_135_1298)">
<path d="M31.0905 179.878H374.563V230.889H4.51758" stroke="#1C1C1B" stroke-width="0.25" stroke-miterlimit="10"/>
</g>
</g>
<g opacity="0.88">
<mask id="mask30_135_1298" style="mask-type:luminance" maskUnits="userSpaceOnUse" x="37" y="181" width="4" height="49">
<path d="M40.7733 181.979H37.9121V229.547H40.7733V181.979Z" fill="white"/>
</mask>
<g mask="url(#mask30_135_1298)">
<path d="M39.422 182.177H39.2012V229.191H39.422V182.177Z" fill="#1C1C1B"/>
<path d="M39.2602 182.17L38.1035 183.326L38.26 183.483L39.4167 182.326L39.2602 182.17Z" fill="#1C1C1B"/>
<path d="M39.4221 182.191L39.2656 182.347L40.4225 183.503L40.579 183.347L39.4221 182.191Z" fill="#1C1C1B"/>
<path d="M40.4223 228.021L39.2656 229.178L39.4221 229.334L40.5788 228.178L40.4223 228.021Z" fill="#1C1C1B"/>
<path d="M38.2698 228.049L38.1133 228.206L39.2702 229.362L39.4266 229.205L38.2698 228.049Z" fill="#1C1C1B"/>
</g>
</g>
<g opacity="0.88">
<mask id="mask31_135_1298" style="mask-type:luminance" maskUnits="userSpaceOnUse" x="77" y="76" width="4" height="49">
<path d="M80.2382 76.7979H77.377V124.365H80.2382V76.7979Z" fill="white"/>
</mask>
<g mask="url(#mask31_135_1298)">
<path d="M78.8868 76.9952H78.666V124.009H78.8868V76.9952Z" fill="#1C1C1B"/>
<path d="M78.7348 76.9797L77.5781 78.1361L77.7346 78.2925L78.8913 77.1361L78.7348 76.9797Z" fill="#1C1C1B"/>
<path d="M78.8928 77.0025L78.7363 77.1589L79.8932 78.3151L80.0497 78.1587L78.8928 77.0025Z" fill="#1C1C1B"/>
<path d="M79.8832 122.845L78.7266 124.001L78.8831 124.157L80.0398 123.001L79.8832 122.845Z" fill="#1C1C1B"/>
<path d="M77.7365 122.867L77.5801 123.023L78.737 124.179L78.8935 124.023L77.7365 122.867Z" fill="#1C1C1B"/>
</g>
</g>
<g opacity="0.88">
<mask id="mask32_135_1298" style="mask-type:luminance" maskUnits="userSpaceOnUse" x="84" y="67" width="49" height="4">
<path d="M132.586 67.88H84.9883V70.7394H132.586V67.88Z" fill="white"/>
</mask>
<g mask="url(#mask32_135_1298)">
<path d="M132.23 69.2307H85.1855V69.4519H132.23V69.2307Z" fill="#1C1C1B"/>
<path d="M85.342 69.2294L85.1855 69.3857L86.3424 70.5419L86.4989 70.3855L85.342 69.2294Z" fill="#1C1C1B"/>
<path d="M86.3464 68.0742L85.1895 69.2303L85.3459 69.3867L86.5028 68.2306L86.3464 68.0742Z" fill="#1C1C1B"/>
<path d="M131.235 68.0785L131.078 68.2349L132.235 69.391L132.392 69.2347L131.235 68.0785Z" fill="#1C1C1B"/>
<path d="M132.233 69.2257L131.076 70.3818L131.233 70.5382L132.39 69.3821L132.233 69.2257Z" fill="#1C1C1B"/>
</g>
</g>
<g opacity="0.88">
<mask id="mask33_135_1298" style="mask-type:luminance" maskUnits="userSpaceOnUse" x="142" y="67" width="93" height="4">
<path d="M234.173 67.2954H142.385V70.1548H234.173V67.2954Z" fill="white"/>
</mask>
<g mask="url(#mask33_135_1298)">
<path d="M233.819 68.6541H142.584V68.8752H233.819V68.6541Z" fill="#1C1C1B"/>
<path d="M142.735 68.6478L142.578 68.8042L143.735 69.9604L143.892 69.804L142.735 68.6478Z" fill="#1C1C1B"/>
<path d="M143.747 67.4926L142.59 68.6488L142.746 68.8052L143.903 67.649L143.747 67.4926Z" fill="#1C1C1B"/>
<path d="M232.821 67.4935L232.664 67.6499L233.821 68.8061L233.977 68.6497L232.821 67.4935Z" fill="#1C1C1B"/>
<path d="M233.821 68.6486L232.664 69.8048L232.821 69.9612L233.977 68.805L233.821 68.6486Z" fill="#1C1C1B"/>
</g>
</g>
<g opacity="0.88">
<mask id="mask34_135_1298" style="mask-type:luminance" maskUnits="userSpaceOnUse" x="21" y="129" width="4" height="92">
<path d="M24.1112 129.167H21.25V220.897H24.1112V129.167Z" fill="white"/>
</mask>
<g mask="url(#mask34_135_1298)">
<path d="M22.8224 129.523H22.6016V220.7H22.8224V129.523Z" fill="#1C1C1B"/>
<path d="M23.7565 219.34L22.5996 220.496L22.7561 220.652L23.913 219.496L23.7565 219.34Z" fill="#1C1C1B"/>
<path d="M21.5998 219.387L21.4434 219.543L22.6003 220.699L22.7568 220.543L21.5998 219.387Z" fill="#1C1C1B"/>
<path d="M22.5885 129.332L21.4316 130.488L21.5881 130.645L22.745 129.489L22.5885 129.332Z" fill="#1C1C1B"/>
<path d="M22.7581 129.362L22.6016 129.518L23.7585 130.674L23.915 130.518L22.7581 129.362Z" fill="#1C1C1B"/>
</g>
</g>
<g opacity="0.88">
<mask id="mask35_135_1298" style="mask-type:luminance" maskUnits="userSpaceOnUse" x="123" y="115" width="373" height="130">
<path d="M495.753 115.06H123.447V244.863H495.753V115.06Z" fill="white"/>
</mask>
<g mask="url(#mask35_135_1298)">
<path d="M495.619 115.202H123.59V244.72H495.619V115.202Z" stroke="#1C1C1B" stroke-width="0.25" stroke-miterlimit="10"/>
</g>
</g>
<g opacity="0.88">
<mask id="mask36_135_1298" style="mask-type:luminance" maskUnits="userSpaceOnUse" x="109" y="101" width="401" height="158">
<path d="M509.507 101.324H109.703V258.607H509.507V101.324Z" fill="white"/>
</mask>
<g mask="url(#mask36_135_1298)">
<path d="M509.372 101.458H109.846V258.457H509.372V101.458Z" stroke="#1C1C1B" stroke-width="0.25" stroke-miterlimit="10"/>
</g>
</g>
<g opacity="0.88">
<mask id="mask37_135_1298" style="mask-type:luminance" maskUnits="userSpaceOnUse" x="85" y="75" width="451" height="210">
<path d="M535.028 75.8184H85.0508V284.104H535.028V75.8184Z" fill="white"/>
</mask>
<g mask="url(#mask37_135_1298)">
<path d="M534.886 75.9606H85.1855V283.97H534.886V75.9606Z" stroke="#1C1C1B" stroke-width="0.25" stroke-miterlimit="10"/>
</g>
</g>
<g opacity="0.88">
<mask id="mask38_135_1298" style="mask-type:luminance" maskUnits="userSpaceOnUse" x="85" y="211" width="411" height="1">
<path d="M495.722 211.687H85.0898V211.885H495.722V211.687Z" fill="white"/>
</mask>
<g mask="url(#mask38_135_1298)">
<path d="M495.617 211.782H494.432" stroke="#1C1C1B" stroke-width="0.25" stroke-miterlimit="10"/>
<path d="M492.077 211.782H87.5547" stroke="#1C1C1B" stroke-width="0.25" stroke-miterlimit="10"/>
<path d="M86.377 211.782H85.1914" stroke="#1C1C1B" stroke-width="0.25" stroke-miterlimit="10"/>
</g>
</g>
<g opacity="0.88">
<mask id="mask39_135_1298" style="mask-type:luminance" maskUnits="userSpaceOnUse" x="137" y="128" width="345" height="104">
<path d="M481.953 128.733H137.311V231.071H481.953V128.733Z" fill="white"/>
</mask>
<g mask="url(#mask39_135_1298)">
<mask id="mask40_135_1298" style="mask-type:luminance" maskUnits="userSpaceOnUse" x="58" y="-72" width="505" height="506">
<path d="M562.826 -71.338H58.0273V433.141H562.826V-71.338Z" fill="white"/>
</mask>
<g mask="url(#mask40_135_1298)">
<path d="M258.02 154.294C265.031 154.294 270.706 148.615 270.706 141.616C270.706 134.618 265.023 128.931 258.02 128.931C251.017 128.931 245.334 134.61 245.334 141.616C245.334 148.622 251.009 154.294 258.02 154.294Z" fill="#999999"/>
<path d="M457.942 205.376C450.931 205.376 445.256 211.055 445.256 218.062C445.256 225.068 450.939 230.747 457.942 230.747C464.945 230.747 470.627 225.068 470.627 218.062C470.627 211.055 464.945 205.376 457.942 205.376Z" fill="#999999"/>
<path d="M478.003 177.872C476.865 176.442 475.568 175.218 474.24 174.27C471.498 172.469 467.577 170.937 461.072 169.041L456.923 167.872C453.627 166.885 453.003 166.521 453.003 165.171C453.003 163.638 455.042 162.248 457.785 162.248C459.041 162.248 460.085 162.303 461.404 162.635C467.064 164.033 468.423 166.055 472.098 166.055C477.75 166.055 480.998 161.079 481.291 157.422C481.583 153.765 479.892 151.348 478.477 149.91C477.062 148.472 474.628 147.161 474.628 147.161C470.628 145.179 464.677 144.096 458.559 144.096C444.846 144.096 434.5 153.733 434.5 166.434C434.5 170.573 435.906 174.673 438.254 177.872C439.392 179.294 440.68 180.526 442.016 181.466C444.759 183.267 448.679 184.799 455.184 186.695L459.342 187.864C462.637 188.859 463.025 189.878 462.677 191.253C462.305 192.738 461.341 193.496 458.599 193.496C457.342 193.496 456.172 193.433 454.852 193.109C453.303 192.73 452.086 192.303 451.042 191.877C451.042 191.877 451.05 191.877 451.058 191.877C450.837 191.79 450.623 191.703 450.41 191.616C449.327 191.15 448.434 190.708 447.557 190.368C441.368 187.469 438.949 185.013 438.949 185.013H435.258L422.509 155.629C419.458 148.267 412.946 144.128 404.907 144.128H404.805C396.766 144.128 390.253 148.267 387.203 155.629L374.509 184.87C373.9 182.319 372.786 179.918 371.292 177.88C370.154 176.45 368.865 175.226 367.53 174.278C364.787 172.477 360.867 170.945 354.362 169.049L350.212 167.88C346.924 166.893 346.292 166.529 346.292 165.179C346.292 163.646 348.331 162.256 351.074 162.256C352.33 162.256 353.374 162.311 354.694 162.643C360.353 164.041 361.712 166.063 365.388 166.063C371.039 166.063 374.288 161.087 374.58 157.43C374.872 153.773 373.181 151.355 371.766 149.918C370.351 148.48 367.925 147.169 367.925 147.169C363.926 145.186 357.974 144.104 351.856 144.104C338.143 144.104 327.797 153.741 327.797 166.442C327.797 170.581 329.204 174.681 331.551 177.88C332.689 179.302 333.978 180.534 335.313 181.474C338.056 183.275 341.976 184.807 348.481 186.703L352.631 187.872C355.919 188.867 356.314 189.886 355.974 191.261C355.603 192.746 354.638 193.504 351.896 193.504C350.639 193.504 349.469 193.441 348.149 193.117C344.466 192.209 342.609 191.04 340.743 190.329C334.618 187.446 332.231 185.021 332.231 185.021H327.133C327.133 185.021 327.133 184.949 327.133 184.918C327.133 177.793 325.987 171.403 318.47 171.403H304.709C299.09 171.403 295.122 175.81 295.122 180.858C295.122 185.905 299.24 190.305 304.298 190.305H306.804C305.958 193.267 300.331 192.84 300.331 192.84C293.075 192.84 287.945 187.035 287.945 178.283C287.945 169.531 293.763 162.303 301.018 162.303V143.946C287.645 143.946 275.584 151.679 271.023 165.905H267.269V155.795C267.269 155.052 267.197 154.325 267.063 153.622C264.455 155.463 261.285 156.553 257.847 156.553C254.409 156.553 251.232 155.455 248.623 153.607C248.497 154.286 248.434 154.989 248.434 155.7V201.087C248.434 206.924 252.575 211.6 257.689 211.6C262.803 211.6 267.269 207.019 267.269 201.174V184.823H269.521C271.932 200.779 284.238 211.766 300.244 211.648C308.978 211.585 315.585 208.915 320.067 204.389C322.96 201.758 323.734 201.261 325.394 201.261C327.607 201.261 329.172 203.338 329.607 203.994C330.065 204.728 330.579 205.336 331.069 205.826C332.484 207.264 334.91 208.575 334.91 208.575C338.91 210.558 344.861 211.64 350.979 211.64C358.108 211.64 364.313 209.033 368.644 204.752C369.767 208.82 373.3 211.577 377.552 211.577C382.073 211.577 384.997 208.678 386.301 205.526L387.811 201.332H421.885L423.395 205.526C424.699 208.678 427.631 211.577 432.144 211.577C435.322 211.577 437.606 210.021 438.902 207.532C439.961 205.882 439.819 205.147 440.744 204.949C441.344 204.823 441.842 205.992 442.064 206.624C442.103 206.758 442.143 206.877 442.182 206.995C442.182 207.011 442.182 207.019 442.182 207.019C442.301 207.351 442.427 207.627 442.53 207.864C443.352 209.673 445.699 210.021 445.699 210.021C445.739 210.036 445.771 210.052 445.802 210.068C448.355 206 452.884 203.299 458.037 203.299C462.701 203.299 466.85 205.51 469.49 208.938C476.912 205.21 481.733 197.975 481.733 189.302C481.733 185.163 480.326 181.063 477.979 177.864M408.543 182.509H401.082C400.07 182.509 398.086 181.205 398.086 179.633C398.086 179.104 398.149 178.543 398.292 177.959L402.109 166.213C402.576 164.081 403.572 162.888 404.805 162.888H404.82C406.053 162.888 407.057 164.088 407.516 166.213L411.333 177.959C411.475 178.543 411.539 179.104 411.539 179.633C411.539 181.205 409.555 182.509 408.543 182.509Z" fill="#999999"/>
<path d="M314.573 165.984C320.248 165.984 323.504 160.984 323.805 157.311C324.097 153.638 322.398 151.205 320.975 149.768C319.552 148.322 317.11 147.011 317.11 147.011C313.103 145.029 307.143 143.938 301.018 143.938V162.288C302.828 162.288 303.831 162.548 303.831 162.548C309.514 163.946 310.882 165.984 314.573 165.984Z" fill="#999999"/>
<path d="M200.646 128.939H198.583C199.334 130.289 199.769 131.837 199.769 133.496C199.769 138.686 195.564 142.888 190.371 142.888C185.178 142.888 180.973 138.686 180.973 133.496C180.973 131.837 181.408 130.289 182.159 128.939H137.525V230.874H239.525V128.939H200.654H200.646ZM188.419 220.969C167.513 220.969 149.903 203.322 149.903 182.43C149.903 164.689 165.948 146.616 182.467 142.493C184.506 143.962 188.008 144.942 190.719 144.942C192.386 144.942 194.062 144.768 195.516 144.168C166.967 158.078 168.691 182.43 168.691 182.43C168.691 192.659 176.452 201.079 186.419 202.13V195.55C179.084 194.405 173.409 187.375 173.212 178.789C177.306 178.789 181.021 180.629 183.763 183.607C183.012 177.588 184.601 171.269 188.521 166.529C192.45 171.245 194.046 177.54 193.327 183.544C196.062 180.597 199.753 178.789 203.823 178.781C203.626 187.422 197.872 194.492 190.466 195.566V202.146C200.496 201.166 208.337 192.714 208.337 182.43C208.337 182.43 209.143 171.292 201.468 160.368L220.335 160.732C224.642 166.877 227.14 174.357 227.14 182.43C227.14 203.322 209.325 220.969 188.419 220.969Z" fill="#0F8141"/>
<path d="M200.646 128.939H198.583C199.334 130.289 199.769 131.837 199.769 133.496C199.769 138.678 195.564 142.888 190.371 142.888C185.178 142.888 180.973 138.686 180.973 133.496C180.973 131.837 181.408 130.289 182.159 128.939H137.525V230.874H239.525V128.939H200.654H200.646ZM188.419 220.961C167.513 220.961 149.903 203.315 149.903 182.422C149.903 164.681 165.948 146.608 182.467 142.485C184.506 143.954 188.008 144.926 190.719 144.926C192.386 144.926 194.062 144.752 195.516 144.152C166.967 158.062 168.691 182.414 168.691 182.414C168.691 192.651 176.452 201.063 186.419 202.114V195.526C179.084 194.389 173.409 187.351 173.212 178.765C177.306 178.765 181.021 180.605 183.763 183.583C183.012 177.564 184.601 171.245 188.521 166.506C192.45 171.221 194.046 177.517 193.327 183.52C196.062 180.574 199.753 178.765 203.823 178.757C203.626 187.406 197.872 194.476 190.466 195.542V202.122C200.496 201.142 208.337 192.691 208.337 182.406C208.337 182.406 209.143 171.269 201.468 160.345L220.335 160.708C224.642 166.853 227.14 174.334 227.14 182.406C227.14 203.299 209.325 220.945 188.419 220.945" fill="#0F8141"/>
<path d="M200.646 128.939H198.583C199.334 130.289 199.769 131.837 199.769 133.496C199.769 138.678 195.564 142.888 190.371 142.888C185.178 142.888 180.973 138.686 180.973 133.496C180.973 131.837 181.408 130.289 182.159 128.939H137.525V230.874H239.525V128.939H200.654H200.646ZM188.419 220.961C167.513 220.961 149.903 203.315 149.903 182.422C149.903 164.681 165.948 146.608 182.467 142.485C184.506 143.954 188.008 144.926 190.719 144.926C192.386 144.926 194.062 144.752 195.516 144.152C166.967 158.062 168.691 182.414 168.691 182.414C168.691 192.651 176.452 201.063 186.419 202.114V195.526C179.084 194.389 173.409 187.351 173.212 178.765C177.306 178.765 181.021 180.605 183.763 183.583C183.012 177.564 184.601 171.245 188.521 166.506C192.45 171.221 194.046 177.517 193.327 183.52C196.062 180.574 199.753 178.765 203.823 178.757C203.626 187.406 197.872 194.476 190.466 195.542V202.122C200.496 201.142 208.337 192.691 208.337 182.406C208.337 182.406 209.143 171.269 201.468 160.345L220.335 160.708C224.642 166.853 227.14 174.334 227.14 182.406C227.14 203.299 209.325 220.945 188.419 220.945" fill="#999999"/>
</g>
</g>
</g>
</g>
</g>
</g>
</g>
</svg>
