<?xml version="1.0" encoding="utf-8"?>
<!-- Generator: Adobe Illustrator 28.1.0, SVG Export Plug-In . SVG Version: 6.00 Build 0)  -->
<svg version="1.1" id="Layer_1" xmlns="http://www.w3.org/2000/svg" xmlns:xlink="http://www.w3.org/1999/xlink" x="0px" y="0px"
	 viewBox="0 0 175 56" style="enable-background:new 0 0 175 56;" xml:space="preserve">
<style type="text/css">
	.st0{fill:#FFFFFF;}
</style>
<g>
	<path class="st0" d="M61.3,16.5c3.6,0,6.5-2.9,6.5-6.5c0-3.6-2.9-6.5-6.5-6.5c-3.6,0-6.5,2.9-6.5,6.5
		C54.8,13.6,57.7,16.5,61.3,16.5z"/>
	<path class="st0" d="M162.9,42.5c-3.6,0-6.5,2.9-6.5,6.5c0,3.6,2.9,6.5,6.5,6.5c3.6,0,6.5-2.9,6.5-6.5
		C169.3,45.4,166.5,42.5,162.9,42.5z"/>
	<path class="st0" d="M173.1,28.5c-0.6-0.7-1.2-1.4-1.9-1.8c-1.4-0.9-3.4-1.7-6.7-2.7l-2.1-0.6c-1.7-0.5-2-0.7-2-1.4
		c0-0.8,1-1.5,2.4-1.5c0.6,0,1.2,0,1.8,0.2c2.9,0.7,3.6,1.7,5.4,1.7c2.9,0,4.5-2.5,4.7-4.4c0.1-1.9-0.7-3.1-1.4-3.8
		c-0.7-0.7-2-1.4-2-1.4c-2-1-5.1-1.6-8.2-1.6c-7,0-12.2,4.9-12.2,11.4c0,2.1,0.7,4.2,1.9,5.8c0.6,0.7,1.2,1.4,1.9,1.8
		c1.4,0.9,3.4,1.7,6.7,2.7l2.1,0.6c1.7,0.5,1.9,1,1.7,1.7c-0.2,0.8-0.7,1.1-2.1,1.1c-0.6,0-1.2,0-1.9-0.2c-0.8-0.2-1.4-0.4-1.9-0.6
		c0,0,0,0,0,0c-0.1,0-0.2-0.1-0.3-0.1c-0.6-0.2-1-0.5-1.4-0.6c-3.1-1.5-4.4-2.7-4.4-2.7h-0.5h-1.3l-6.5-14.9
		c-1.6-3.7-4.9-5.8-8.9-5.8h0c-4.1,0-7.4,2.1-8.9,5.8l-6.5,14.9c-0.3-1.3-0.9-2.5-1.6-3.6c-0.6-0.7-1.2-1.4-1.9-1.8
		c-1.4-0.9-3.4-1.7-6.7-2.7l-2.1-0.6c-1.7-0.5-2-0.7-2-1.4c0-0.8,1-1.5,2.4-1.5c0.6,0,1.2,0,1.8,0.2c2.9,0.7,3.6,1.7,5.4,1.7
		c2.9,0,4.5-2.5,4.7-4.4c0.1-1.9-0.7-3.1-1.4-3.8c-0.7-0.7-2-1.4-2-1.4c-2-1-5.1-1.6-8.2-1.6c-7,0-12.2,4.9-12.2,11.4
		c0,2.1,0.7,4.2,1.9,5.8c0.6,0.7,1.2,1.4,1.9,1.8c1.4,0.9,3.4,1.7,6.7,2.7l2.1,0.6c1.7,0.5,1.9,1,1.7,1.7c-0.2,0.8-0.7,1.1-2.1,1.1
		c-0.6,0-1.2,0-1.9-0.2c-1.9-0.5-2.8-1.1-3.8-1.4c-3.1-1.5-4.3-2.7-4.3-2.7h-0.6h-2c0,0,0,0,0-0.1c0-3.6-0.6-6.9-4.4-6.9h-7
		c-2.9,0-4.9,2.2-4.9,4.8c0,2.6,2.1,4.8,4.7,4.8h1.3c-0.4,1.5-3.3,1.3-3.3,1.3c-3.7,0-6.3-3-6.3-7.4c0-4.4,2.9-8.1,6.6-8.1
		c0.8,0,1.3,0.1,1.3,0.1c2.9,0.7,3.6,1.7,5.5,1.7c2.9,0,4.5-2.5,4.7-4.4c0.2-1.9-0.7-3.1-1.4-3.8c-0.7-0.7-2-1.4-2-1.4
		c-2-1-4.9-1.5-8-1.6v0c0,0-0.1,0-0.1,0c0,0-0.1,0-0.1,0v0c-6.7,0.1-12.8,4-15.1,11.2H66v-5.1c0-0.4,0-0.7-0.1-1.1
		c-1.3,0.9-2.9,1.5-4.7,1.5c-1.7,0-3.4-0.6-4.7-1.5c-0.1,0.3-0.1,0.7-0.1,1.1v23.1c0,3,2.1,5.3,4.7,5.3c2.7,0,4.9-2.3,4.9-5.3V32
		h1.1c1.2,8.1,7.5,13.7,15.6,13.6c4.4,0,7.8-1.4,10.1-3.7c1.5-1.3,1.9-1.6,2.7-1.6c1.1,0,1.9,1.1,2.1,1.4c0.2,0.4,0.5,0.7,0.7,0.9
		c0.7,0.7,2,1.4,2,1.4c2,1,5.1,1.6,8.2,1.6c3.6,0,6.8-1.3,9-3.5c0.6,2.1,2.4,3.5,4.5,3.5c2.3,0,3.8-1.5,4.4-3.1l0.8-2.1h8.7h0h0h0
		h8.7l0.8,2.1c0.7,1.6,2.2,3.1,4.4,3.1c1.6,0,2.8-0.8,3.4-2.1c0.5-0.8,0.5-1.2,0.9-1.3c0.3-0.1,0.6,0.5,0.7,0.9c0,0.1,0,0.1,0.1,0.2
		c0,0,0,0,0,0l0,0c0.1,0.2,0.1,0.3,0.2,0.4c0.4,0.9,1.6,1.1,1.6,1.1c0,0,0,0,0.1,0c1.3-2.1,3.6-3.4,6.2-3.4c2.4,0,4.5,1.1,5.8,2.9
		c3.8-1.9,6.2-5.6,6.2-10C175,32.2,174.3,30.1,173.1,28.5z M137.8,30.9H134c-0.5,0-1.5-0.7-1.5-1.5c0-0.3,0-0.6,0.1-0.9l1.9-6
		c0.2-1.1,0.7-1.7,1.4-1.7c0,0,0,0,0,0c0,0,0,0,0,0c0.6,0,1.1,0.6,1.4,1.7l1.9,6c0.1,0.3,0.1,0.6,0.1,0.9
		C139.3,30.2,138.3,30.9,137.8,30.9z"/>
	<path class="st0" d="M31,0C31,0,31,0,31,0L31,0c0.4,0.7,0.6,1.5,0.6,2.3c0,2.6-2.1,4.8-4.8,4.8c-2.6,0-4.8-2.1-4.8-4.8
		c0-0.8,0.2-1.6,0.6-2.3h0c0,0,0,0,0,0h-0.8H0v0v51.9v0h51.9v0V0v0H32.1H31z M42.1,16.2c2.2,3.1,3.5,6.9,3.5,11
		c0,10.6-9.1,19.6-19.7,19.6c-10.6,0-19.6-9-19.6-19.6c0-9,8.2-18.2,16.6-20.3c1,0.7,2.8,1.2,4.2,1.2c0,0,0.1,0,0.1,0
		c0.1,0,0.2,0,0.4,0c0.1,0,0.2,0,0.2,0c0.1,0,0.3,0,0.4,0c0.1,0,0.1,0,0.2,0C28.5,8,28.7,8,28.8,8c0,0,0.1,0,0.1,0
		c0.2,0,0.3-0.1,0.5-0.1c0,0,0,0,0,0c-12.9,6.3-13.6,16.8-13.6,19c0,0.3,0,0.4,0,0.4c0,5.2,3.9,9.5,9,10v0v-3.3v0
		c-3.7-0.6-6.6-4.2-6.7-8.5c2.1,0,4,0.9,5.4,2.5c0,0,0,0,0,0c0,0,0,0,0,0c-0.1-0.6-0.1-1.2-0.1-1.7c0.1-2.5,0.9-5,2.5-7
		c1.7,2.1,2.6,4.8,2.5,7.5c0,0.4,0,0.8-0.1,1.2c0,0,0,0,0,0c0,0,0,0,0,0c1.4-1.5,3.3-2.4,5.3-2.4c-0.1,4.4-3,8-6.8,8.5v0v3.3v0
		c5.1-0.5,9.1-4.8,9.1-10c0,0,0-0.2,0-0.6c0-1.6-0.3-6.1-3.5-10.7L42.1,16.2z"/>
</g>
</svg>
