<svg width="79" height="84" viewBox="0 0 79 84" fill="none" xmlns="http://www.w3.org/2000/svg">
<path fill-rule="evenodd" clip-rule="evenodd" d="M39.4482 0V15.0685L42.4702 10.0473L39.4482 0Z" fill="white"/>
<path fill-rule="evenodd" clip-rule="evenodd" d="M38.9289 0V15.0685L35.9082 10.0473L38.9289 0Z" fill="white"/>
<path fill-rule="evenodd" clip-rule="evenodd" d="M32.104 16.7749L25.0508 24.5405L37.9631 16.7749H32.104Z" fill="white"/>
<path fill-rule="evenodd" clip-rule="evenodd" d="M25.3188 24.9841L35.4851 22.397L38.23 17.2202L25.3188 24.9841Z" fill="white"/>
<path fill-rule="evenodd" clip-rule="evenodd" d="M46.2744 16.7749H40.4165L53.3289 24.5405L46.2744 16.7749Z" fill="white"/>
<path fill-rule="evenodd" clip-rule="evenodd" d="M42.8953 22.3987L53.0595 24.9887L40.145 17.2231L42.8953 22.3987Z" fill="white"/>
<path fill-rule="evenodd" clip-rule="evenodd" d="M35.9231 22.772L38.9458 32.7864V40.6327L34.436 25.2243L35.9231 22.772Z" fill="white"/>
<path fill-rule="evenodd" clip-rule="evenodd" d="M42.4546 22.8003L39.4331 32.8168V40.6581L43.9417 25.2555L42.4546 22.8003Z" fill="white"/>
<path fill-rule="evenodd" clip-rule="evenodd" d="M35.3895 10.4735L34.014 7.95043L18.4321 4.1001L25.2124 8.04446L35.3895 10.4735Z" fill="white"/>
<path fill-rule="evenodd" clip-rule="evenodd" d="M18.1587 4.50488L29.215 16.1486L32.0788 16.0962L24.9373 8.44799L18.1587 4.50488Z" fill="white"/>
<path fill-rule="evenodd" clip-rule="evenodd" d="M59.9468 4.09912L44.3658 7.94987L42.9873 10.4725L53.1661 8.04348L59.9468 4.09912Z" fill="white"/>
<path fill-rule="evenodd" clip-rule="evenodd" d="M53.4397 8.44799L46.2979 16.0962L49.1633 16.1491L60.2196 4.50488L53.4397 8.44799Z" fill="white"/>
<path fill-rule="evenodd" clip-rule="evenodd" d="M68.6483 72.9721C67.2944 72.6214 66.2687 72.4479 65.5747 72.4479C63.9483 72.4479 62.8166 72.8502 62.1875 73.6628C61.5513 74.4783 61.2363 75.9279 61.2363 78.0137C61.2363 79.6688 61.4182 80.8875 61.781 81.673C62.3797 82.9753 63.5651 83.6261 65.3367 83.6261C66.8662 83.6261 68.0828 83.2566 68.9799 82.5106V77.8069H66.2658V78.3665H66.6923C67.0335 78.3665 67.244 78.4144 67.3227 78.5076C67.4038 78.5991 67.4396 78.8516 67.4396 79.2606V80.9253C67.4396 82.382 66.7851 83.1122 65.472 83.1122C64.3244 83.1122 63.5743 82.5747 63.2231 81.4966C63.0354 80.9287 62.9435 79.8257 62.9435 78.1901C62.9435 76.2121 63.0642 74.9268 63.3076 74.3389C63.7007 73.4123 64.5096 72.9447 65.7229 72.9447C67.2989 72.9447 68.0828 73.6337 68.0828 75.0175V75.5331H68.9799V73.0612L68.6483 72.9721ZM59.3295 74.3839C59.3295 73.8738 59.3594 73.5625 59.4239 73.449C59.4859 73.3408 59.6582 73.2813 59.9274 73.2813H60.4907V72.7246H57.5204V73.2813H58.0929C58.38 73.2813 58.5489 73.3408 58.6047 73.449C58.6667 73.5625 58.6987 73.8738 58.6987 74.3839V81.4966L53.232 72.7246H50.6303V73.2813H51.1849C51.4745 73.2813 51.6467 73.3408 51.7025 73.449C51.7611 73.5625 51.7894 73.8738 51.7894 74.3839V81.6585C51.7894 82.1652 51.7611 82.4785 51.7025 82.5876C51.6467 82.7028 51.4745 82.7598 51.1849 82.7598H50.6303V83.3203H53.6131V82.7598H53.0089C52.7248 82.7598 52.5571 82.7028 52.4943 82.5876C52.4381 82.4785 52.409 82.1652 52.409 81.6585V74.6926L57.768 83.3203H59.3295V74.3839ZM48.2645 70.4482C48.0373 70.4482 47.8422 70.531 47.6778 70.6983C47.511 70.8618 47.4294 71.0595 47.4294 71.287C47.4294 71.5188 47.511 71.7181 47.6778 71.887C47.8422 72.0518 48.0373 72.1358 48.2645 72.1358C48.5004 72.1358 48.7014 72.0518 48.8661 71.887C49.0317 71.7181 49.1178 71.5188 49.1178 71.287C49.1178 71.0595 49.0317 70.8618 48.8661 70.6983C48.7014 70.531 48.5004 70.4482 48.2645 70.4482ZM49.1004 74.3839C49.1004 73.8738 49.1332 73.5655 49.1902 73.449C49.2497 73.3408 49.4212 73.2813 49.7033 73.2813H50.277V72.7246H46.3406V73.2813H46.854C47.1378 73.2813 47.3063 73.3408 47.3687 73.449C47.4294 73.5655 47.4552 73.8738 47.4552 74.3839V81.6585C47.4552 82.1652 47.4294 82.4802 47.3687 82.5876C47.3063 82.7028 47.1378 82.7598 46.854 82.7598H46.3406V83.319H50.277V82.7598H49.7033C49.4212 82.7598 49.2497 82.7028 49.1902 82.5876C49.1332 82.4802 49.1004 82.1652 49.1004 81.6585V74.3839ZM39.7575 73.2521H41.4788C42.0629 73.2521 42.5131 73.3354 42.8214 73.501C43.1285 73.6716 43.3727 73.9628 43.5466 74.3839C43.7742 74.9144 43.8837 76.1468 43.8837 78.0898C43.8837 79.5182 43.8204 80.5297 43.6935 81.1296C43.5466 81.8041 43.2691 82.2597 42.8605 82.4931C42.4977 82.6999 41.8757 82.8047 41.0061 82.8047H39.7575V73.2521ZM38.1098 81.6568C38.1098 82.1652 38.0811 82.4802 38.025 82.5876C37.9617 82.7028 37.7924 82.7598 37.5086 82.7598H36.9943V83.319H41.5075C42.722 83.319 43.5833 83.1909 44.1063 82.9375C44.6929 82.6537 45.0953 82.1128 45.3116 81.3177C45.4955 80.5946 45.5904 79.4092 45.5904 77.7636C45.5904 76.3153 45.4635 75.2256 45.2155 74.5033C44.9667 73.7781 44.5381 73.2725 43.929 72.9884C43.5583 72.809 42.8389 72.7246 41.7671 72.7246H36.9943V73.2521H37.5086C37.7924 73.2521 37.9617 73.3092 38.025 73.424C38.0811 73.5347 38.1098 73.8467 38.1098 74.3593V81.6568ZM35.6737 80.2775V81.0556C35.6737 81.7691 35.6005 82.2368 35.4607 82.4519C35.3184 82.6649 35.0118 82.7727 34.5408 82.7727H32.3518C32.2033 82.7727 32.0926 82.7598 32.0123 82.7332C31.8455 82.662 31.7639 82.3674 31.7639 81.8494V74.3839C31.7639 73.8738 31.7926 73.5625 31.8596 73.449C31.9241 73.3408 32.0926 73.2825 32.3668 73.2825H32.9247V72.7246H28.9409V73.2825H29.5184C29.8005 73.2825 29.9711 73.3408 30.031 73.449C30.0925 73.5625 30.1217 73.8738 30.1217 74.3839V81.6585C30.1217 82.1652 30.0925 82.4785 30.031 82.5876C29.9711 82.7028 29.8005 82.7598 29.5184 82.7598H28.9409V83.3203H36.5683V80.2775H35.6737ZM24.1531 72.9434C25.1334 72.9434 25.7862 73.3408 26.1178 74.133C26.3758 74.7533 26.5039 75.9279 26.5039 77.6617C26.5039 79.2956 26.439 80.429 26.3146 81.0556C26.0371 82.3795 25.314 83.0407 24.1381 83.0407C22.9424 83.0407 22.2159 82.4261 21.9617 81.2008C21.8464 80.6358 21.7865 79.6164 21.7865 78.1452C21.7865 76.6956 21.8651 75.5693 22.022 74.7667C22.1293 74.1987 22.3727 73.7548 22.7489 73.4286C23.1254 73.1065 23.5914 72.9434 24.1531 72.9434ZM24.181 72.4583C22.7035 72.4583 21.6517 72.8265 21.0297 73.5546C20.4085 74.2832 20.0964 75.7602 20.0964 77.9879C20.0964 79.7179 20.2624 80.9728 20.582 81.7442C21.0983 82.9724 22.339 83.5828 24.3008 83.5828C26.055 83.5828 27.1917 82.9724 27.7085 81.7442C28.0272 80.9728 28.1907 79.6688 28.1907 77.8373C28.1907 75.9279 27.9648 74.6285 27.5158 73.9424C26.873 72.9522 25.76 72.4583 24.181 72.4583ZM16.5698 77.3088V74.3839C16.5698 73.8738 16.544 73.5625 16.4841 73.449C16.4254 73.3408 16.2532 73.2813 15.9673 73.2813H15.4422V72.7246H19.3783V73.2813H18.8316C18.5507 73.2813 18.3776 73.3408 18.3194 73.449C18.2624 73.5625 18.2303 73.8738 18.2303 74.3839V81.6585C18.2303 82.1652 18.2624 82.4802 18.3194 82.5876C18.3776 82.7028 18.5507 82.7598 18.8316 82.7598H19.3783V83.3203H15.4422V82.7598H15.9673C16.2532 82.7598 16.4254 82.7028 16.4841 82.5876C16.544 82.4802 16.5698 82.1652 16.5698 81.6585V77.8976H12.1923V81.6585C12.1923 82.1769 12.2218 82.4898 12.2793 82.6025C12.34 82.7061 12.5123 82.7598 12.7952 82.7598H13.3365V83.3203H9.40088V82.7598H9.94385C10.2289 82.7598 10.4011 82.7028 10.4598 82.5876C10.5147 82.4802 10.5455 82.1652 10.5455 81.6585V74.3839C10.5455 73.8738 10.5147 73.5625 10.4598 73.449C10.4011 73.3408 10.2289 73.2813 9.94385 73.2813H9.40088V72.7246H13.3365V73.2813H12.7952C12.5123 73.2813 12.34 73.3408 12.2793 73.449C12.2218 73.5625 12.1923 73.8738 12.1923 74.3839V77.3088H16.5698Z" fill="white"/>
<path fill-rule="evenodd" clip-rule="evenodd" d="M70.3401 72.4176H70.4616C70.6001 72.4176 70.7112 72.3768 70.7112 72.2632C70.7112 72.1584 70.6513 72.096 70.4786 72.096C70.417 72.096 70.3684 72.1014 70.3401 72.1105V72.4176ZM70.3326 73.0334H70.1041V71.9425C70.1924 71.9266 70.3255 71.905 70.4953 71.905C70.6912 71.905 70.7819 71.9425 70.8639 71.9978C70.9234 72.0419 70.9708 72.1218 70.9708 72.2279C70.9708 72.3539 70.8651 72.4455 70.7382 72.4858V72.5004C70.8535 72.537 70.8988 72.6186 70.9375 72.7688C70.9708 72.9302 70.992 72.9976 71.0183 73.0334H70.7674C70.7341 72.9901 70.7112 72.8998 70.6817 72.7688C70.6625 72.6552 70.593 72.5998 70.4503 72.5998H70.3326V73.0334ZM69.676 72.4659C69.676 72.9523 70.0342 73.3338 70.5173 73.3338C70.9854 73.3425 71.3428 72.9523 71.3428 72.4729C71.3428 71.9924 70.9854 71.5992 70.5027 71.5992C70.0342 71.5992 69.676 71.9924 69.676 72.4659ZM71.6053 72.4659C71.6053 73.0746 71.1239 73.5672 70.5119 73.5672C69.8986 73.5672 69.4072 73.0746 69.4072 72.4659C69.4072 71.858 69.8986 71.3745 70.5173 71.3745C71.1239 71.3745 71.6053 71.858 71.6053 72.4659Z" fill="white"/>
<path fill-rule="evenodd" clip-rule="evenodd" d="M72.327 48.1638H73.3772C74.8634 48.1638 75.3572 47.8771 75.3572 46.1812C75.3572 44.5298 74.6882 44.41 73.5856 44.41H72.327V48.1638ZM78.38 53.7329V54.6037H75.849L73.0742 48.9839H72.327L72.3249 52.9939C72.3216 53.3172 72.3178 53.5502 72.4131 53.6468C72.4705 53.7046 72.5845 53.7329 72.7689 53.7329H73.4986V54.6037H69.1948V53.7329H69.8934C70.0769 53.7329 70.195 53.7046 70.2545 53.6439C70.3548 53.5436 70.3523 53.2985 70.3494 52.9578V45.2313C70.3523 44.8939 70.3548 44.6492 70.2545 44.5473C70.195 44.4874 70.0769 44.4566 69.8934 44.4566H69.1948V43.5874H74.724C75.4667 43.5874 76.0758 43.6253 76.6109 44.1083C77.1077 44.5527 77.3673 45.2692 77.3673 46.1812C77.3673 47.1315 77.2117 47.781 76.8713 48.232C76.3671 48.8936 75.7558 48.9352 75.0498 48.9839H75.0373L77.2225 53.0934C77.4484 53.5299 77.5703 53.7329 77.9356 53.7329H78.38ZM61.1026 49.6392H63.8791H63.902V49.6333C63.8774 49.5743 63.8637 49.5447 63.8574 49.511L62.4665 45.223L61.0473 49.6346C61.0431 49.6346 61.0419 49.6333 61.0402 49.6333C61.0385 49.6333 61.056 49.6392 61.1026 49.6392ZM60.7723 54.6037H57.5906V53.7329H58.2113C58.7227 53.7329 58.788 53.5973 58.9811 53.0189L61.6448 44.834C61.6756 44.7378 61.6872 44.7116 61.6872 44.6388C61.6872 44.5589 61.6872 44.4566 61.2765 44.4566H60.5929V43.5874H63.9419L63.9768 43.6923L67.171 53.1633C67.3624 53.7329 67.4269 53.7329 67.9403 53.7329H68.5137V54.6037H64.1899V53.7329H64.7774C65.1685 53.7329 65.1685 53.693 65.1685 53.5665C65.1685 53.5086 65.1539 53.4704 65.1339 53.415C65.119 53.3817 65.1065 53.3451 65.094 53.3031L64.2402 50.7784C64.1778 50.5891 64.1778 50.5891 63.9269 50.5891H60.7956C60.7677 50.5891 60.7477 50.6065 60.7007 50.7684L60.6874 50.8179L59.8515 53.4067C59.8469 53.4267 59.8357 53.4516 59.8253 53.4766C59.8153 53.5041 59.8091 53.514 59.8091 53.5344C59.8091 53.695 59.8091 53.7329 60.0425 53.7329H60.7723V54.6037ZM55.7902 52.1539C55.7902 53.415 55.6941 53.7329 54.8066 53.7329H52.6064C52.1991 53.7329 52.1662 53.6755 52.1662 52.9561V45.4123L52.1642 45.2313C52.1642 44.8939 52.1587 44.6492 52.2623 44.5473C52.3206 44.4874 52.44 44.4566 52.6222 44.4566H53.3358V43.5874H48.9995V44.4566H49.7306C49.9145 44.4566 50.0326 44.4874 50.0925 44.5473C50.1924 44.6492 50.1903 44.8939 50.1878 45.2313V52.9578C50.1903 53.2985 50.1924 53.5419 50.0925 53.6426C50.0326 53.7046 49.9145 53.7329 49.7306 53.7329H48.9995V54.6037H56.981V51.2127H55.7902V52.1539ZM47.9414 51.246H46.7494V52.0253C46.7494 53.4088 46.6083 53.7329 45.2178 53.7329H42.1293L47.5399 44.3447V43.5874H40.1197V46.9301H41.3113V45.6029C41.3113 44.5777 41.8373 44.4566 42.2317 44.4566H45.1596L39.7523 53.8448V54.6037H47.9414V51.246ZM38.8332 53.7329H38.1022C37.9179 53.7329 37.8001 53.7046 37.7402 53.6426C37.6412 53.5419 37.6424 53.2973 37.6457 52.9578V45.233C37.6424 44.8939 37.6412 44.6492 37.7402 44.5473C37.8001 44.4874 37.9179 44.4566 38.1022 44.4566H38.8332V43.5874H34.5452V44.4566H35.2105C35.3948 44.4566 35.5134 44.4874 35.5716 44.5473C35.674 44.6492 35.6727 44.8939 35.669 45.233L35.6673 52.7801L35.669 52.9578C35.6727 53.2973 35.674 53.5419 35.5716 53.6426C35.5134 53.7046 35.3948 53.7329 35.2105 53.7329H34.5452V54.6037H38.8332V53.7329ZM28.9573 53.782C31.614 53.782 31.725 52.7813 31.725 48.961C31.725 45.4356 31.4213 44.41 29.4242 44.41H27.8439V53.782H28.9573ZM29.4541 54.6037H24.7417V53.7329H25.4091C25.5934 53.7329 25.7112 53.7046 25.7723 53.6426C25.8709 53.5419 25.8697 53.2973 25.868 52.9578L25.8655 52.7801L25.868 45.233C25.8697 44.8939 25.8709 44.6492 25.7723 44.5473C25.7112 44.4874 25.5934 44.4566 25.4091 44.4566H24.7417V43.5874H30.129C31.0577 43.5874 31.822 43.6332 32.5268 44.2356C33.3852 44.9679 33.7355 46.2686 33.7355 48.7176C33.7355 53.4225 33.2321 54.6037 29.4541 54.6037ZM23.8734 51.2127H22.6809V52.1539C22.6809 53.415 22.5844 53.7329 21.6956 53.7329H19.4955C19.091 53.7329 19.0565 53.6755 19.0565 52.9561V45.2313C19.0523 44.8939 19.0519 44.6492 19.1505 44.5473C19.21 44.4874 19.3294 44.4566 19.5133 44.4566H20.2294V43.5874H15.8902V44.4566H16.6241C16.8056 44.4566 16.9254 44.4874 16.9836 44.5473C17.0839 44.6492 17.0827 44.8939 17.0789 45.2313V52.9578C17.0827 53.2985 17.0839 53.5419 16.9836 53.6426C16.9254 53.7046 16.8056 53.7329 16.6241 53.7329H15.8902V54.6037H23.8734V51.2127ZM14.974 53.7329H14.2421C14.0595 53.7329 13.9401 53.7046 13.8822 53.6426C13.7815 53.5419 13.7836 53.2973 13.7849 52.9578L13.7874 45.4123L13.7849 45.233C13.7836 44.8939 13.7815 44.6492 13.8822 44.5473C13.9401 44.4874 14.0595 44.4566 14.2421 44.4566H14.974V43.5874H10.6843V44.4566H11.3533C11.5368 44.4566 11.655 44.4874 11.7149 44.5473C11.8135 44.6492 11.8127 44.8939 11.8089 45.233V52.9578C11.8127 53.2973 11.8135 53.5419 11.7149 53.6426C11.655 53.7046 11.5368 53.7329 11.3533 53.7329H10.6843V54.6037H14.974V53.7329ZM6.20737 53.7329H6.92426V54.6037H2.56924V53.7329H3.31776C3.50208 53.7329 3.62024 53.7046 3.67849 53.6426C3.77876 53.5419 3.77627 53.2985 3.77419 52.9578V50.1651L1.28441 45.0932C1.00065 44.5078 0.900379 44.4886 0.411911 44.4886H0V43.5874H4.30676V44.4886H3.59361C3.37517 44.4886 3.37517 44.5194 3.37517 44.5935C3.37892 44.6184 3.42635 44.7366 3.47295 44.8265L5.37149 48.9127L7.72812 44.8036C7.76806 44.7349 7.85044 44.598 7.85044 44.4957C7.8234 44.4886 7.65697 44.4886 7.55545 44.4886H6.95131V43.5874H9.99071V44.4886H9.45065C9.00379 44.4886 8.92183 44.544 8.65346 45.0199L5.75136 50.1709V52.9578C5.74845 53.2985 5.74637 53.5419 5.84622 53.6426C5.90531 53.7046 6.0243 53.7329 6.20737 53.7329Z" fill="white"/>
<path fill-rule="evenodd" clip-rule="evenodd" d="M63.7702 66.7594L60.3942 58.1479H57.1476V59.0188H57.8316C58.013 59.0188 58.1287 59.0479 58.1882 59.1074C58.2897 59.2093 58.2897 59.4694 58.2884 59.8272V67.5183C58.2897 67.8578 58.2926 68.1037 58.1936 68.2044C58.132 68.2639 58.0151 68.2943 57.8316 68.2943H57.1476V69.1643H60.4424V68.2943H59.6785C59.4946 68.2943 59.376 68.2639 59.3157 68.2044C59.2179 68.1037 59.2179 67.8578 59.2208 67.5195V60.7101L62.5286 69.1643H63.9728L67.2635 60.7143V67.5195C67.2652 67.8578 67.2681 68.1037 67.1678 68.2044C67.1079 68.2639 66.9885 68.2943 66.805 68.2943H66.106V69.1643H70.4277V68.2943H69.6967C69.5153 68.2943 69.3959 68.2639 69.3368 68.2044C69.2357 68.1037 69.2386 67.8578 69.2386 67.5195L69.2399 59.9712L69.2386 59.7935C69.2386 59.4544 69.2357 59.2093 69.3368 59.1087C69.3959 59.0496 69.5153 59.0188 69.6967 59.0188H70.4277V58.1479H67.1824L63.7702 66.7594ZM51.9658 59.0188H52.6332C52.8171 59.0188 52.9348 59.0496 52.9948 59.1087C53.0954 59.2093 53.0938 59.4557 53.0909 59.7952V67.5183C53.0938 67.8578 53.0954 68.1037 52.9948 68.2044C52.9348 68.2639 52.8171 68.2943 52.6332 68.2943H51.9658V69.1643H56.2559V68.2943H55.522C55.3414 68.2943 55.2212 68.2639 55.1625 68.2044C55.063 68.1037 55.0639 67.8578 55.066 67.5183V59.7952C55.0639 59.4557 55.063 59.2093 55.1625 59.1087C55.2212 59.0496 55.3414 59.0188 55.522 59.0188H56.2559V58.1479H51.9658V59.0188ZM45.2013 62.7231H46.2523C47.7373 62.7231 48.2324 62.4389 48.2324 60.7434C48.2324 59.0899 47.5629 58.9705 46.4599 58.9705H45.2013V62.7231ZM50.8112 68.2943H51.2539V69.1643H48.7238L45.9473 63.5444H45.2013L45.2009 67.5545C45.1972 67.8782 45.1942 68.1129 45.2866 68.2086C45.3461 68.2672 45.4622 68.2943 45.6432 68.2943H46.3734V69.1643H42.0671V68.2943H42.769C42.9512 68.2943 43.0706 68.2639 43.1289 68.2044C43.2279 68.1037 43.2271 67.8578 43.2233 67.5195V59.7935C43.2271 59.4544 43.2279 59.2085 43.1289 59.1087C43.0706 59.0496 42.9512 59.0188 42.769 59.0188H42.0671V58.1479H47.6008C48.3422 58.1479 48.951 58.1866 49.4885 58.671C49.9807 59.1149 50.2429 59.8301 50.2429 60.7434C50.2429 61.6916 50.0864 62.3411 49.7461 62.7946C49.2439 63.4558 48.6306 63.4978 47.927 63.5444H47.9133L50.0972 67.6535C50.3232 68.0921 50.4459 68.2943 50.8112 68.2943ZM36.8766 59.0188H37.5481C37.7299 59.0188 37.8485 59.0496 37.908 59.1087C38.0074 59.2093 38.0066 59.4557 38.0024 59.7952V67.5183C38.0066 67.8578 38.0074 68.1037 37.908 68.2044C37.8485 68.2639 37.7299 68.2943 37.5481 68.2943H36.8766V69.1643H41.1667V68.2943H40.4369C40.2534 68.2943 40.1352 68.2639 40.0749 68.2044C39.9742 68.1037 39.9763 67.8578 39.9792 67.5183V59.7952C39.9763 59.4557 39.9742 59.2093 40.0749 59.1087C40.1352 59.0496 40.2534 59.0188 40.4369 59.0188H41.1667V58.1479H36.8766V59.0188ZM27.1355 61.5385H28.3271V60.3573C28.3271 59.4062 28.6637 59.0188 29.4896 59.0188H30.2756C30.6039 59.0188 30.6039 59.0375 30.6039 59.3625V67.5154C30.6059 67.8549 30.6089 68.0996 30.5048 68.2032C30.4437 68.2639 30.3272 68.2943 30.1466 68.2943H29.4297V69.1643H33.7544V68.2943H33.037C32.8548 68.2943 32.7362 68.2639 32.6751 68.2044C32.576 68.1037 32.5777 67.8578 32.581 67.5195V59.4423C32.581 59.0188 32.5943 59.0188 32.9085 59.0188H33.7261C34.5411 59.0188 34.8748 59.4586 34.8748 60.535V61.5385H36.0648V58.1479H27.1355V61.5385ZM23.0979 64.0736L21.707 59.7831L20.2861 64.1956H20.2815C20.2774 64.1956 20.2965 64.2018 20.3419 64.2018H23.1192H23.1408V64.1956C23.1192 64.1331 23.105 64.1086 23.0979 64.0736ZM27.1796 68.2943H27.75V69.1643H23.4295V68.2943H24.0183C24.4073 68.2943 24.4073 68.2556 24.4073 68.1287C24.4073 68.0704 24.3957 68.0326 24.3728 67.9772C24.3611 67.9423 24.3466 67.9057 24.3345 67.8649L23.4807 65.3406C23.4166 65.1513 23.4166 65.1513 23.167 65.1513H20.0365C20.0049 65.1513 19.9886 65.1687 19.9424 65.3302L19.9266 65.3801L19.0924 67.9668C19.0849 67.9889 19.0766 68.0138 19.0666 68.0384C19.0533 68.0658 19.05 68.0746 19.05 68.0966C19.05 68.2585 19.05 68.2943 19.2821 68.2943H20.014V69.1643H16.8319V68.2943H17.4489C17.9611 68.2943 18.0269 68.159 18.2199 67.5811L20.8844 59.3962C20.9156 59.2996 20.9248 59.2722 20.9248 59.2006C20.9248 59.1195 20.9248 59.0188 20.5179 59.0188H19.8334V58.1479H23.1799L23.2157 58.254L26.4103 67.7263C26.6021 68.2943 26.6649 68.2943 27.1796 68.2943ZM13.703 67.5195C13.7001 67.8578 13.6993 68.1037 13.7979 68.2044C13.8578 68.2639 13.9776 68.2943 14.1599 68.2943H14.8764V69.1643H10.5218V68.2943H11.2707C11.4525 68.2943 11.5715 68.2639 11.631 68.2044C11.7313 68.1037 11.7292 67.8578 11.7267 67.5195V64.7273L9.23692 59.6554C8.95191 59.0687 8.85164 59.0508 8.36317 59.0508H7.95459V58.1479H12.258V59.0508H11.5449C11.3264 59.0508 11.3264 59.0812 11.3264 59.1561C11.3314 59.1802 11.378 59.2996 11.4242 59.3899L13.3215 63.4737L15.6815 59.3654C15.7189 59.2967 15.8042 59.1586 15.8042 59.0579C15.7763 59.0508 15.6091 59.0508 15.5092 59.0508H14.9046V58.1479H17.9424V59.0508H17.4011C16.9559 59.0508 16.8735 59.1062 16.6064 59.5842L13.703 64.7315V67.5195Z" fill="white"/>
</svg>
