<?xml version="1.0" encoding="utf-8"?>
<!-- Generator: Adobe Illustrator 28.1.0, SVG Export Plug-In . SVG Version: 6.00 Build 0)  -->
<svg version="1.1" id="Layer_2_00000107588119204869517120000015433761138926835900_"
	 xmlns="http://www.w3.org/2000/svg" xmlns:xlink="http://www.w3.org/1999/xlink" x="0px" y="0px" viewBox="0 0 258.1 39.5"
	 style="enable-background:new 0 0 258.1 39.5;" xml:space="preserve">
<style type="text/css">
	.st0{fill:#FFFFFF;}
</style>
<g id="Layer_1-2">
	<g>
		<g>
			<path class="st0" d="M16.9,15.2h9.9L15.7,26.5L28,38.8H17.9l-9.1-9.5v9.5H0V4h8.8v19.4L16.9,15.2L16.9,15.2z"/>
			<path class="st0" d="M48.7,38.8v-3.8c-0.2,0.4-0.6,0.9-1.3,1.7s-1.6,1.4-2.8,2c-1.2,0.6-2.5,0.9-4,0.9c-2.3,0-4.3-0.6-6-1.7
				c-1.7-1.1-3.1-2.6-4-4.5c-1-1.9-1.4-4-1.4-6.3s0.5-4.4,1.4-6.3c1-1.9,2.3-3.4,4-4.5s3.7-1.7,6-1.7c1.5,0,2.8,0.2,3.9,0.7
				c1.1,0.5,2,1,2.7,1.7c0.7,0.6,1.2,1.2,1.4,1.8v-3.4h8.7v23.6L48.7,38.8L48.7,38.8z M37.6,27c0,1.1,0.2,2,0.8,2.9s1.2,1.5,2,2
				c0.8,0.5,1.8,0.7,2.8,0.7s2-0.2,2.8-0.7c0.8-0.5,1.4-1.1,1.9-2s0.7-1.8,0.7-2.9s-0.2-2-0.7-2.9c-0.5-0.9-1.1-1.5-1.9-2
				c-0.8-0.5-1.7-0.7-2.8-0.7s-1.9,0.2-2.8,0.7c-0.8,0.5-1.5,1.2-2,2S37.6,25.9,37.6,27z"/>
			<path class="st0" d="M71.6,38.8h-8.8V4h8.8V38.8L71.6,38.8z"/>
			<path class="st0" d="M109.7,14.5c1.8,0,3.4,0.4,4.7,1.1c1.4,0.7,2.4,1.9,3.2,3.4s1.2,3.5,1.2,5.9v13.9h-8.6V26.3
				c0-1.6-0.2-3-0.8-4s-1.5-1.5-3-1.5c-0.9,0-1.7,0.2-2.3,0.7c-0.7,0.5-1.2,1.1-1.6,1.9c-0.4,0.8-0.6,1.8-0.6,2.9v12.5h-8V26.3
				c0-1.6-0.3-3-0.8-4s-1.5-1.5-2.9-1.5c-0.9,0-1.7,0.2-2.3,0.7s-1.2,1.1-1.5,1.9c-0.3,0.8-0.5,1.8-0.5,3v12.5h-8.7V15.2h8.7v3.4
				c0.2-0.6,0.7-1.2,1.5-1.8c0.8-0.6,1.7-1.1,2.9-1.6s2.4-0.6,3.7-0.6c1.4,0,2.6,0.2,3.5,0.6s1.7,1,2.3,1.7s1.1,1.4,1.4,2.2
				c0.3-0.7,0.8-1.4,1.6-2.1c0.8-0.7,1.8-1.3,3-1.7S108.3,14.5,109.7,14.5L109.7,14.5z"/>
			<path class="st0" d="M129.7,39.5c-1.4,0-2.6-0.5-3.7-1.5s-1.5-2.2-1.5-3.7s0.5-2.7,1.5-3.7c1-1,2.2-1.5,3.7-1.5s2.7,0.5,3.7,1.5
				s1.5,2.3,1.5,3.7s-0.5,2.6-1.5,3.7C132.4,39,131.2,39.5,129.7,39.5z"/>
		</g>
		<g>
			<path class="st0" d="M154,19.3l-6,18.8h-3.7l-5.6-22.8h3.4l4.3,19.2l5.9-18.8h3.3l5.9,18.8l4.4-19.2h3.4l-5.5,22.8h-3.7L154,19.3
				z"/>
			<path class="st0" d="M185.3,38.8c-2.3,0-4.3-0.5-6.1-1.6s-3.1-2.5-4.2-4.3c-1-1.8-1.5-3.8-1.5-6.1s0.5-4.3,1.5-6.1
				s2.4-3.3,4.2-4.4s3.8-1.6,6.1-1.6s4.3,0.5,6,1.6s3.1,2.5,4.1,4.4s1.5,3.9,1.5,6.1s-0.5,4.3-1.5,6.1c-1,1.8-2.4,3.2-4.1,4.3
				S187.5,38.8,185.3,38.8z M185.3,35.9c1.7,0,3.2-0.4,4.5-1.2s2.3-1.9,3-3.3s1.1-2.9,1.1-4.7s-0.4-3.3-1.1-4.7
				c-0.7-1.4-1.7-2.5-3-3.3s-2.8-1.2-4.5-1.2s-3.2,0.4-4.5,1.2s-2.3,1.9-3,3.3c-0.7,1.4-1.1,3-1.1,4.7s0.4,3.3,1.1,4.7
				s1.7,2.5,3,3.3S183.5,35.9,185.3,35.9z"/>
			<path class="st0" d="M206,38.1h-3.1V15.4h3.1v4.1h-0.1c0.1-0.5,0.4-1.1,1-1.8c0.6-0.8,1.4-1.4,2.4-2s2.2-0.9,3.7-0.9
				c1.1,0,2,0.1,2.8,0.4c0.8,0.3,1.3,0.5,1.6,0.8l-1.4,2.7c-0.2-0.2-0.7-0.5-1.3-0.7c-0.7-0.2-1.4-0.4-2.4-0.4
				c-1.3,0-2.4,0.4-3.3,1.3c-0.9,0.9-1.6,1.9-2.2,3s-0.8,2.2-0.8,3.2V38.1z"/>
			<path class="st0" d="M234,15.4h4.1l-12.2,10.8l12.8,11.9h-4.1l-11.4-10.5v10.5h-3.2V0h3.2v24.9L234,15.4z"/>
			<path class="st0" d="M250.4,14.7c1.1,0,2.1,0.1,3,0.4c0.9,0.2,1.8,0.5,2.4,0.9c0.7,0.3,1.2,0.6,1.6,0.9l-1.5,2.2
				c-0.4-0.4-1.1-0.8-2-1.2s-2-0.6-3.2-0.6c-1.5,0-2.7,0.3-3.8,0.9s-1.6,1.5-1.6,2.7s0.5,2,1.6,2.7c1.1,0.7,2.4,1.2,4.2,1.6
				c1.3,0.3,2.5,0.8,3.6,1.2s1.9,1.2,2.6,2c0.6,0.9,1,2,1,3.4c0,1.2-0.2,2.3-0.8,3.1c-0.5,0.9-1.2,1.6-2,2.2c-0.9,0.5-1.8,1-2.9,1.2
				s-2.2,0.4-3.4,0.4s-2.4-0.1-3.4-0.4c-1.1-0.3-1.9-0.6-2.7-1s-1.3-0.8-1.7-1.1l1.6-2.5c0.5,0.5,1.3,1,2.4,1.5
				c1.1,0.5,2.4,0.8,3.9,0.8c1.7,0,3.1-0.4,4.2-1.2c1.1-0.8,1.7-1.8,1.7-3.1c0-0.9-0.3-1.7-0.8-2.3c-0.5-0.6-1.2-1-2.1-1.4
				s-1.8-0.6-2.8-0.9c-0.9-0.2-1.8-0.5-2.7-0.9s-1.6-0.8-2.3-1.3c-0.7-0.5-1.2-1.1-1.6-1.9c-0.4-0.7-0.6-1.6-0.6-2.6
				c0-1.2,0.4-2.3,1.1-3.2s1.8-1.6,3-2.1C247.5,15,248.9,14.7,250.4,14.7L250.4,14.7z"/>
		</g>
	</g>
</g>
</svg>
